<?xml version="1.0" encoding="UTF-8" standalone="no"?>
<!-- Created with Inkscape (http://www.inkscape.org/) -->

<svg
   xmlns:dc="http://purl.org/dc/elements/1.1/"
   xmlns:cc="http://creativecommons.org/ns#"
   xmlns:rdf="http://www.w3.org/1999/02/22-rdf-syntax-ns#"
   xmlns:svg="http://www.w3.org/2000/svg"
   xmlns="http://www.w3.org/2000/svg"
   xmlns:sodipodi="http://sodipodi.sourceforge.net/DTD/sodipodi-0.dtd"
   xmlns:inkscape="http://www.inkscape.org/namespaces/inkscape"
   width="1440"
   height="900"
   viewBox="0 0 1440 900.00001"
   id="svg4250"
   version="1.1"
   inkscape:version="0.91 r13725"
   sodipodi:docname="one_ring_inscription_circular.svg"
   inkscape:export-filename="/Users/satvik/g4960.png"
   inkscape:export-xdpi="90"
   inkscape:export-ydpi="90">
  <defs
     id="defs4252" />
  <sodipodi:namedview
     id="base"
     pagecolor="#1d1f21"
     bordercolor="#666666"
     borderopacity="1.0"
     inkscape:pageopacity="1"
     inkscape:pageshadow="2"
     inkscape:zoom="0.49497475"
     inkscape:cx="638.02412"
     inkscape:cy="358.37559"
     inkscape:document-units="px"
     inkscape:current-layer="g4960"
     showgrid="false"
     units="px"
     inkscape:window-width="1440"
     inkscape:window-height="771"
     inkscape:window-x="0"
     inkscape:window-y="1"
     inkscape:window-maximized="1" />
  <metadata
     id="metadata4255">
    <rdf:RDF>
      <cc:Work
         rdf:about="">
        <dc:format>image/svg+xml</dc:format>
        <dc:type
           rdf:resource="http://purl.org/dc/dcmitype/StillImage" />
        <dc:title></dc:title>
      </cc:Work>
    </rdf:RDF>
  </metadata>
  <g
     inkscape:label="Layer 1"
     inkscape:groupmode="layer"
     id="layer1"
     transform="translate(0,-152.36216)">
    <g
       id="g4960"
       transform="matrix(0.02660848,0,0,-0.02660848,519.18104,806.58143)"
       style="fill:#806600;stroke:none">
      <path
         id="path4962"
         d="m 6809,14732 c -137,-67 -288,-207 -412,-383 -23,-33 -47,-68 -52,-77 -6,-9 -27,-43 -48,-74 -20,-31 -37,-61 -37,-67 0,-5 -3,-11 -7,-13 -5,-1 -17,-20 -28,-42 -10,-21 -28,-42 -40,-47 -11,-5 -38,-20 -60,-34 -22,-14 -47,-28 -55,-32 -8,-3 -33,-20 -55,-37 -22,-17 -44,-34 -50,-38 -5,-4 -25,-19 -42,-34 l -33,-26 -11,29 c -18,49 -48,73 -91,73 -21,0 -46,-4 -56,-10 -9,-5 -34,-17 -54,-26 -21,-9 -38,-20 -38,-25 0,-5 -6,-9 -13,-9 -22,0 -146,-138 -170,-187 -17,-37 -24,-26 -19,31 2,30 -1,63 -7,75 -22,39 -52,26 -137,-61 -92,-95 -124,-139 -124,-168 0,-26 26,-26 40,1 24,43 87,109 106,109 18,0 22,-44 13,-153 -14,-160 -57,-462 -71,-497 -4,-8 -9,-28 -12,-45 -18,-102 -33,-172 -38,-185 -4,-8 -9,-28 -12,-45 -3,-16 -12,-61 -20,-100 -9,-38 -20,-97 -26,-130 -6,-33 -15,-69 -20,-80 -10,-25 -18,-60 -31,-145 -6,-36 -14,-74 -19,-85 -5,-11 -11,-36 -14,-55 -6,-44 -31,-170 -46,-230 -6,-25 -15,-76 -21,-115 -5,-38 -14,-77 -18,-85 -5,-9 -12,-53 -16,-98 -4,-45 -11,-82 -16,-82 -5,0 -9,-15 -9,-34 0,-18 -5,-47 -11,-65 -6,-17 -8,-44 -4,-59 6,-24 8,-25 17,-9 5,10 7,28 4,40 -3,11 -1,26 3,31 5,6 11,27 14,46 3,19 11,62 17,95 6,33 12,68 14,77 1,10 5,21 9,24 4,4 7,24 7,45 0,21 4,40 9,43 5,3 12,34 16,68 4,35 11,68 15,73 4,6 10,24 13,40 7,37 34,156 48,210 6,22 16,65 22,95 7,30 15,60 18,65 4,6 10,30 13,55 4,25 11,54 15,65 17,41 30,91 37,135 4,25 10,50 14,55 4,6 10,24 13,40 21,102 34,162 39,175 7,15 20,80 25,115 1,11 7,40 13,65 10,40 17,73 50,240 5,25 15,72 23,105 13,55 19,73 35,115 3,8 6,17 7,20 7,29 57,117 92,167 64,89 137,143 197,143 47,0 66,-32 66,-112 0,-74 -24,-143 -65,-189 l -28,-33 -27,32 c -33,40 -61,41 -94,1 -38,-45 -43,-75 -16,-104 33,-35 70,-40 123,-16 38,17 62,39 118,109 35,42 81,158 86,213 6,57 8,62 57,102 111,93 249,157 336,157 30,0 29,-2 -44,-61 -88,-70 -174,-162 -222,-237 -19,-29 -34,-55 -34,-58 0,-3 -6,-20 -14,-37 -19,-45 -36,-110 -36,-141 0,-35 22,-116 32,-116 4,0 8,-7 8,-15 0,-9 22,-38 50,-65 27,-28 56,-50 65,-50 8,0 15,-4 15,-9 0,-16 178,-44 208,-33 15,6 45,13 68,16 63,9 182,75 245,136 54,53 99,123 99,155 0,8 5,15 10,15 6,0 10,28 10,64 0,52 3,65 18,70 15,5 30,13 66,38 24,16 182,154 198,173 17,20 17,19 18,-17 0,-28 8,-45 34,-72 30,-33 38,-36 89,-36 53,0 68,4 144,36 17,8 34,14 37,14 4,0 34,18 67,40 33,22 64,40 69,40 8,0 -28,-79 -41,-90 -4,-3 -10,-16 -14,-30 -4,-14 -15,-36 -25,-50 -10,-14 -49,-86 -87,-160 -39,-74 -83,-157 -98,-185 -15,-27 -34,-61 -41,-75 -8,-14 -14,-31 -14,-37 0,-7 -3,-13 -7,-13 -5,0 -21,-26 -38,-58 -16,-31 -39,-73 -50,-92 -20,-32 -71,-123 -99,-175 -22,-42 -124,-207 -185,-300 -52,-80 -66,-102 -81,-130 -6,-11 -37,-60 -69,-110 -32,-49 -58,-91 -56,-93 12,-13 112,117 190,245 6,9 13,22 18,27 8,11 122,187 144,222 150,239 233,376 233,384 0,6 3,10 8,10 4,0 16,17 27,38 11,20 23,39 26,42 3,3 21,32 39,65 18,33 42,72 52,88 11,15 16,27 13,27 -3,0 2,12 13,28 11,15 36,59 57,97 21,39 49,90 63,115 59,101 73,126 85,150 6,14 14,27 18,30 3,3 21,32 39,65 18,32 48,83 66,112 19,28 34,55 34,58 0,3 8,14 18,25 12,13 36,20 87,23 75,5 168,21 200,35 106,44 212,112 198,126 -9,9 -47,7 -58,-3 -6,-5 -32,-21 -60,-37 l -50,-29 -202,0 c -111,0 -205,3 -209,7 -18,19 171,225 292,319 60,46 169,119 180,119 3,0 20,6 37,13 137,59 235,49 320,-31 31,-29 37,-84 12,-118 -19,-28 -75,-54 -115,-54 -49,0 -109,37 -110,68 0,9 5,10 19,2 48,-25 113,-2 132,47 29,77 -104,111 -181,47 -37,-32 -64,-87 -56,-117 8,-33 73,-94 114,-108 57,-19 152,-5 210,31 123,75 170,223 96,302 -43,45 -104,68 -184,68 -38,0 -71,-4 -74,-9 -3,-4 -26,-11 -51,-14 -24,-4 -53,-11 -62,-16 -77,-41 -82,-42 -126,-13 -37,24 -51,27 -127,27 -75,-1 -91,-4 -134,-29 -66,-38 -67,-39 -160,-131 -94,-93 -112,-113 -183,-215 -29,-41 -56,-79 -61,-85 -4,-5 -15,-22 -25,-37 -17,-27 -20,-28 -112,-28 -95,0 -162,-11 -222,-36 -17,-8 -36,-14 -42,-14 -6,0 -25,-8 -44,-19 -63,-35 -128,-44 -392,-51 -143,-4 -268,-10 -277,-14 -10,-5 -18,-4 -18,1 0,20 88,169 139,235 20,25 47,61 60,78 40,52 173,180 214,207 71,45 103,60 160,77 52,15 61,15 106,0 56,-18 101,-62 101,-99 0,-15 -14,-38 -35,-60 -31,-30 -42,-35 -83,-35 -46,1 -121,29 -78,30 26,0 86,39 86,55 0,7 6,15 13,18 9,3 9,11 -3,33 -20,37 -75,53 -119,34 -26,-10 -76,-71 -76,-92 0,-3 -3,-10 -7,-14 -26,-26 5,-94 55,-119 49,-24 157,-20 211,9 89,47 136,117 136,201 0,42 -5,52 -39,86 l -39,39 -108,-1 c -97,0 -115,-3 -165,-27 z m 1152,-107 30,-16 -62,-46 c -71,-51 -245,-226 -317,-315 l -47,-59 -67,3 c -37,2 -70,6 -73,10 -6,6 36,78 60,104 5,6 26,32 45,59 38,53 170,188 215,220 77,54 159,69 216,40 z m -758,-511 c 4,-4 -7,-23 -23,-43 -16,-20 -49,-60 -72,-89 -54,-65 -262,-282 -271,-282 -4,0 -26,-13 -49,-30 -52,-38 -64,-38 -82,3 -7,17 -29,47 -49,65 -87,83 -217,28 -217,-92 0,-39 5,-51 35,-81 33,-33 40,-35 100,-35 35,0 67,5 70,10 25,41 35,-47 11,-96 -19,-37 -80,-95 -126,-120 -19,-11 -37,-22 -40,-25 -9,-11 -145,-39 -187,-39 -23,0 -45,5 -48,10 -3,6 -16,10 -28,10 -24,1 -75,24 -120,54 -50,34 -98,158 -79,201 7,14 12,35 12,46 0,88 178,282 325,354 51,25 77,30 175,36 170,11 214,22 327,78 56,28 111,51 122,51 11,0 23,5 26,10 7,11 178,14 188,4 z m 286,-20 c 74,-7 135,-15 137,-17 9,-9 -41,-86 -84,-130 -91,-94 -184,-147 -260,-150 -45,-1 -56,3 -80,26 -22,23 -27,36 -26,75 1,60 23,104 88,170 39,41 56,51 71,46 11,-3 80,-12 154,-20 z m -907,-400 c 30,-14 68,-61 68,-85 0,-5 -22,-9 -49,-9 -42,0 -54,5 -80,31 -33,33 -38,48 -19,67 16,16 41,15 80,-4 z"
         inkscape:connector-curvature="0"
         style="fill:#f0c674;fill-opacity:1" />
      <path
         id="path4964"
         d="m 5760,14440 c 0,-6 -9,-20 -20,-32 -11,-12 -22,-38 -25,-57 -3,-20 -10,-55 -15,-79 -6,-23 -10,-55 -10,-72 0,-16 -4,-32 -10,-35 -11,-7 -14,-48 -3,-58 11,-11 53,34 53,57 0,28 33,136 41,136 4,0 10,13 14,30 4,16 11,32 16,35 5,4 9,24 9,46 0,35 -3,39 -25,39 -14,0 -25,-5 -25,-10 z"
         inkscape:connector-curvature="0"
         style="fill:#f0c674;fill-opacity:1" />
      <path
         id="path4966"
         d="m 5842,14347 c -12,-13 -22,-29 -22,-35 0,-7 -4,-12 -8,-12 -18,0 -66,-143 -60,-181 5,-36 40,-32 52,6 16,52 40,96 77,139 40,46 51,69 43,91 -9,23 -58,18 -82,-8 z"
         inkscape:connector-curvature="0"
         style="fill:#f0c674;fill-opacity:1" />
      <path
         id="path4968"
         d="m 9702,14333 c -19,-9 -48,-35 -65,-57 -18,-22 -56,-64 -86,-93 -33,-34 -51,-59 -47,-68 8,-23 17,-19 81,36 33,28 88,69 122,91 62,42 91,77 79,97 -10,16 -46,13 -84,-6 z"
         inkscape:connector-curvature="0"
         style="fill:#f0c674;fill-opacity:1" />
      <path
         id="path4970"
         d="m 9480,14328 c -36,-13 -49,-35 -43,-73 3,-22 -1,-42 -13,-61 -20,-31 -64,-74 -76,-74 -5,0 -8,-7 -8,-15 0,-17 27,-19 62,-6 30,12 84,66 114,113 44,70 23,138 -36,116 z"
         inkscape:connector-curvature="0"
         style="fill:#f0c674;fill-opacity:1" />
      <path
         id="path4972"
         d="m 5546,14278 c -23,-32 -20,-58 10,-102 24,-35 25,-42 15,-75 -27,-86 -8,-120 31,-54 44,74 52,194 15,241 -15,19 -54,14 -71,-10 z"
         inkscape:connector-curvature="0"
         style="fill:#f0c674;fill-opacity:1" />
      <path
         id="path4974"
         d="m 9700,14203 c -19,-10 -61,-43 -94,-75 -48,-49 -56,-61 -46,-73 17,-21 24,-19 62,13 45,37 69,49 114,58 77,14 118,50 93,80 -16,19 -87,17 -129,-3 z"
         inkscape:connector-curvature="0"
         style="fill:#f0c674;fill-opacity:1" />
      <path
         id="path4976"
         d="m 10300,14200 c -8,-5 -26,-10 -40,-10 -35,-1 -113,-29 -195,-71 -78,-40 -118,-62 -125,-69 -3,-3 -22,-14 -42,-24 -21,-11 -38,-23 -38,-28 0,-4 -6,-8 -12,-8 -12,0 -121,-70 -179,-115 -14,-11 -37,-27 -49,-35 -13,-8 -37,-26 -54,-40 -113,-91 -139,-106 -241,-138 -128,-41 -252,-37 -301,9 -48,45 -26,148 45,212 41,37 64,43 136,39 47,-3 60,-11 47,-24 -16,-16 -15,-61 0,-76 14,-14 82,-16 107,-2 10,5 24,22 30,39 10,24 10,34 -2,57 -31,60 -51,69 -148,69 -56,0 -93,-5 -101,-13 -6,-6 -20,-12 -30,-12 -31,0 -101,-43 -150,-91 -64,-64 -91,-127 -86,-198 4,-47 10,-59 38,-83 20,-16 51,-30 77,-34 46,-7 141,1 183,15 14,5 52,17 85,26 33,10 66,22 73,28 26,21 23,-3 -4,-25 -16,-13 -69,-61 -119,-108 -117,-110 -417,-385 -468,-430 -22,-19 -68,-60 -102,-90 -33,-30 -92,-82 -130,-115 -38,-33 -96,-85 -130,-115 -34,-30 -97,-85 -141,-122 -43,-36 -93,-79 -109,-95 -30,-27 -62,-54 -189,-157 -90,-74 -101,-86 -72,-86 16,0 68,40 251,195 56,47 144,124 155,135 3,3 39,32 80,65 41,33 77,63 80,66 3,3 32,25 65,49 33,25 74,56 90,70 17,14 48,39 70,55 21,17 52,42 69,56 17,15 58,48 92,75 67,54 116,95 262,224 53,46 108,93 122,105 13,11 49,43 80,70 30,28 89,78 130,110 41,33 77,62 80,65 15,15 90,70 95,70 4,0 19,9 33,19 31,22 123,32 129,15 8,-22 -219,-227 -284,-257 -33,-15 -29,-37 7,-37 37,0 127,40 161,71 115,108 263,161 374,134 45,-12 55,-24 55,-70 0,-35 -7,-50 -42,-90 -61,-70 -121,-105 -177,-105 -43,1 -45,2 -26,15 43,31 47,38 41,67 -8,41 -29,58 -70,58 -28,0 -41,-8 -70,-42 -43,-49 -44,-61 -11,-104 54,-71 122,-81 240,-33 11,4 31,11 45,15 33,9 117,63 158,102 18,17 49,34 69,38 52,10 142,-2 164,-22 67,-61 -55,-243 -163,-244 -5,0 -8,15 -8,33 0,66 -70,98 -124,56 -36,-29 -37,-89 0,-126 25,-25 29,-26 121,-20 52,3 99,10 106,15 7,5 24,12 38,15 15,4 54,25 88,48 l 62,41 111,-7 c 172,-11 231,-46 181,-105 -10,-11 -21,-20 -26,-20 -5,0 -21,-8 -35,-19 -34,-23 -172,-70 -232,-78 -25,-3 -58,-12 -73,-18 l -28,-12 23,-15 c 13,-8 45,-18 72,-22 78,-12 136,-62 136,-116 0,-33 -40,-97 -87,-142 -46,-42 -201,-127 -263,-143 -24,-6 -60,-20 -90,-35 -9,-4 -31,-11 -50,-15 -19,-4 -39,-11 -45,-15 -5,-4 -32,-15 -60,-25 -27,-9 -59,-21 -70,-25 -11,-4 -40,-15 -65,-25 -25,-10 -54,-21 -65,-25 -11,-5 -33,-13 -50,-18 -16,-6 -61,-22 -100,-36 -38,-15 -97,-36 -130,-47 -33,-11 -80,-29 -104,-41 -37,-16 -42,-22 -28,-29 10,-6 23,-6 34,0 10,5 45,17 78,26 33,10 69,21 80,25 40,15 81,29 140,45 97,28 159,47 176,56 9,4 34,11 55,15 22,3 44,10 49,14 6,4 37,14 70,24 33,9 68,21 77,27 10,5 26,9 35,9 10,0 31,7 47,15 15,8 37,15 47,15 10,0 20,4 23,9 3,5 18,12 33,15 38,9 233,108 233,118 0,4 6,8 14,8 7,0 41,29 74,65 64,68 85,116 75,167 -8,39 -55,85 -104,99 -21,7 -39,15 -39,19 0,4 24,10 53,14 63,7 143,33 210,68 12,6 23,6 30,0 7,-5 28,-12 47,-15 53,-8 137,-31 146,-40 4,-4 14,-7 22,-7 8,0 40,-12 71,-27 l 56,-28 -60,-7 c -143,-17 -219,-44 -269,-96 -57,-61 -27,-157 61,-196 70,-32 78,-35 108,-40 95,-17 92,-15 98,-58 6,-41 48,-98 74,-98 7,0 13,-4 13,-10 0,-5 17,-12 38,-16 20,-4 42,-10 47,-14 6,-4 31,-11 57,-14 60,-9 69,-22 21,-31 -21,-4 -55,-15 -76,-25 -21,-10 -52,-22 -70,-26 -17,-3 -38,-10 -47,-14 -8,-5 -37,-16 -65,-25 -27,-9 -64,-23 -82,-31 -17,-8 -36,-14 -42,-14 -7,0 -30,-9 -52,-19 -22,-11 -54,-23 -72,-27 -17,-3 -38,-10 -47,-14 -13,-7 -38,-17 -125,-50 -66,-25 -173,-62 -260,-91 -55,-17 -109,-35 -120,-40 -46,-17 -185,-59 -196,-59 -6,0 -25,-6 -42,-14 -18,-8 -43,-17 -57,-19 -52,-12 -116,-30 -132,-38 -10,-5 -27,-9 -38,-9 -11,0 -20,-4 -20,-10 0,-5 -15,-10 -32,-10 -29,-1 -31,-2 -14,-12 14,-8 24,-8 37,1 11,6 30,11 43,11 14,0 27,4 30,9 3,5 32,12 63,16 32,4 63,10 68,15 6,4 28,10 50,14 22,4 65,16 95,26 30,10 71,22 90,25 19,4 41,11 50,15 22,12 120,40 136,40 8,0 22,4 32,9 9,5 64,24 122,41 58,17 113,36 122,41 10,5 25,9 33,9 8,0 23,4 33,9 9,5 64,24 122,42 58,18 112,36 120,40 8,4 62,21 120,39 107,33 126,39 170,58 14,6 41,14 60,18 19,3 41,10 50,14 8,4 42,15 75,25 33,9 69,21 80,25 11,5 46,16 78,26 54,16 60,16 114,-1 32,-10 91,-35 132,-56 l 75,-37 -120,-4 c -100,-3 -127,-7 -167,-27 -59,-29 -80,-59 -81,-116 -1,-37 4,-49 33,-79 18,-19 48,-40 65,-47 17,-7 33,-16 36,-19 3,-3 33,-15 68,-25 l 62,-20 0,-49 c 0,-46 3,-53 50,-97 27,-27 64,-52 81,-57 50,-12 48,-32 -3,-32 -23,-1 -113,-10 -198,-21 -85,-11 -173,-23 -195,-25 -22,-3 -94,-11 -160,-19 -136,-17 -161,-19 -375,-40 -85,-8 -189,-20 -230,-25 -41,-5 -120,-14 -175,-20 -55,-5 -127,-14 -160,-19 -59,-10 -194,-26 -331,-40 -73,-8 -94,-15 -94,-33 0,-6 17,-8 48,-4 26,4 112,13 192,22 80,8 183,19 230,24 47,6 150,15 230,20 80,5 181,14 225,19 44,6 168,15 275,22 260,15 577,44 760,69 41,6 118,15 170,20 52,5 112,15 133,21 24,6 43,7 50,1 7,-5 27,-12 45,-15 56,-11 182,-77 182,-95 0,-31 -93,-54 -300,-72 -240,-22 -432,-41 -505,-50 -44,-5 -136,-15 -205,-20 -69,-6 -138,-15 -154,-20 -16,-6 -55,-10 -87,-10 -32,0 -80,-5 -106,-10 -26,-6 -93,-15 -148,-20 -55,-5 -161,-17 -235,-25 -74,-9 -164,-19 -200,-22 -36,-3 -69,-9 -75,-14 -5,-5 -33,-9 -62,-9 -31,0 -53,-4 -53,-11 0,-7 22,-9 68,-5 37,3 132,10 212,16 80,5 161,14 181,20 20,5 72,10 115,10 43,0 103,5 133,10 31,6 151,15 266,20 322,15 541,29 639,40 87,9 91,9 138,-17 68,-37 133,-111 173,-197 19,-40 35,-79 35,-85 0,-6 5,-11 10,-11 6,0 10,-8 10,-18 0,-10 16,-44 35,-76 19,-32 35,-61 35,-63 0,-9 59,-79 106,-128 71,-71 167,-150 202,-166 18,-8 32,-17 32,-21 0,-11 28,-10 34,0 3,5 -19,27 -49,50 -85,67 -160,167 -98,133 48,-27 137,-61 173,-67 22,-4 43,-11 46,-15 3,-5 28,-9 57,-9 60,0 133,-32 190,-85 51,-47 53,-76 7,-86 -72,-17 -157,-20 -245,-9 -49,6 -187,15 -305,21 -215,10 -273,14 -640,44 -107,9 -249,20 -315,25 -66,4 -136,11 -155,14 -19,4 -116,11 -215,17 -99,5 -209,12 -245,15 -36,3 -76,1 -90,-5 -20,-8 -4,-10 72,-10 53,-1 99,-5 102,-10 3,-5 43,-11 88,-15 99,-7 363,-33 468,-45 41,-5 129,-14 195,-20 66,-7 143,-16 170,-21 68,-13 215,-29 360,-41 66,-5 201,-16 300,-25 99,-9 221,-18 270,-21 50,-2 94,-9 99,-14 6,-5 17,-9 26,-9 30,0 134,-62 175,-103 58,-60 75,-91 75,-137 0,-35 -4,-43 -40,-66 -35,-23 -47,-26 -94,-21 -69,7 -164,53 -187,91 l -17,29 34,32 c 19,18 34,39 34,48 0,26 -58,67 -95,67 -59,0 -100,-70 -76,-132 12,-33 78,-107 106,-119 11,-5 34,-18 50,-29 48,-31 112,-60 134,-60 11,0 23,-4 26,-10 3,-5 40,-10 81,-10 83,0 77,4 161,-95 56,-65 125,-193 143,-265 16,-65 30,-143 26,-148 -2,-2 -12,9 -23,24 -33,49 -137,156 -193,198 -30,23 -91,60 -135,82 l -79,39 -136,0 c -130,-1 -137,-2 -183,-29 -86,-51 -134,-149 -125,-258 17,-199 172,-425 338,-492 25,-10 53,-22 62,-27 10,-5 42,-9 73,-9 64,0 107,22 138,71 30,49 30,167 -1,225 -53,102 -182,113 -182,15 0,-50 14,-61 77,-61 59,0 67,-9 66,-65 -1,-70 -56,-115 -140,-115 -28,0 -55,5 -58,10 -3,6 -15,10 -25,10 -30,0 -135,104 -164,163 -14,30 -26,61 -26,68 0,8 -5,20 -12,27 -7,7 -12,53 -12,124 -1,120 10,160 57,215 42,49 93,66 176,61 76,-5 161,-26 161,-40 0,-5 8,-8 18,-8 21,0 118,-65 170,-114 46,-43 118,-145 150,-214 20,-42 29,-81 34,-147 13,-168 28,-286 38,-305 5,-10 10,-30 10,-44 0,-14 4,-27 9,-31 5,-3 12,-19 16,-35 13,-57 80,-163 151,-236 76,-79 110,-95 98,-46 -10,40 -34,72 -53,72 -24,0 -74,57 -100,113 -25,55 -37,144 -51,376 -5,90 -14,180 -20,200 -5,20 -10,53 -10,74 0,21 -4,46 -9,55 -5,9 -12,38 -15,64 l -7,47 33,-11 c 37,-13 227,-108 243,-121 6,-5 31,-23 56,-40 119,-82 249,-213 294,-295 11,-21 24,-40 29,-43 4,-4 10,-36 13,-71 4,-49 1,-74 -12,-102 -38,-79 -137,-79 -182,0 -35,61 -24,134 21,134 12,0 16,-9 16,-35 0,-37 31,-75 60,-75 27,0 60,43 60,78 0,49 -58,108 -118,121 -57,12 -88,0 -113,-44 -23,-40 -25,-140 -3,-186 25,-50 93,-118 143,-141 62,-28 159,-22 196,12 14,13 25,29 25,36 0,7 6,14 13,17 8,2 12,29 11,88 0,76 -4,90 -34,144 -64,113 -178,241 -306,341 -64,50 -217,141 -355,211 -71,36 -129,70 -129,75 0,11 -31,80 -39,88 -4,3 -17,27 -31,53 -14,27 -33,57 -42,67 -10,11 -18,23 -18,28 0,5 -12,19 -26,33 -14,13 -40,41 -56,62 l -30,38 31,29 c 36,35 41,81 15,137 -24,50 -135,158 -222,214 l -75,49 44,0 c 50,0 109,31 109,57 0,25 -75,91 -178,158 l -92,59 31,25 c 26,22 31,33 31,73 1,60 -23,109 -81,167 -59,58 -71,67 -115,88 -33,15 -34,18 -20,37 41,59 -13,170 -112,233 -10,7 -64,35 -119,62 -55,27 -93,50 -84,50 21,1 74,28 89,46 8,10 9,19 0,34 -19,37 6,26 110,-46 25,-18 58,-52 120,-125 17,-21 65,-103 105,-182 74,-145 165,-293 202,-331 30,-30 72,-65 79,-65 3,0 21,-7 39,-16 18,-8 50,-14 71,-12 31,2 40,7 42,25 5,35 -49,64 -90,49 -28,-10 -32,-9 -64,29 -19,22 -44,60 -55,85 -95,211 -168,356 -194,384 -14,15 -25,31 -25,35 0,5 -19,26 -43,47 -111,100 -155,130 -230,159 -56,21 -71,23 -87,12 -15,-9 -23,-9 -28,-1 -4,6 -17,14 -29,18 -13,4 -23,12 -23,17 0,5 -4,9 -9,9 -5,0 -39,14 -74,30 -36,17 -72,30 -81,30 -9,0 -16,4 -16,9 0,10 49,21 96,21 19,0 34,2 34,5 0,5 -59,103 -72,120 -5,6 -35,44 -67,85 -108,138 -303,309 -416,365 -22,11 -42,23 -45,26 -5,6 -70,37 -153,73 -21,9 -48,16 -60,16 -40,1 41,30 83,30 46,0 94,16 86,29 -3,5 -22,12 -42,16 -50,9 -171,90 -239,160 -87,90 -334,285 -361,285 -8,0 -14,4 -14,8 0,24 -260,122 -325,122 -18,0 -37,5 -40,10 -3,6 -29,10 -57,10 -48,0 -50,1 -36,18 23,26 36,74 27,98 -11,30 -57,60 -104,69 -22,4 -104,9 -182,12 -79,2 -143,8 -143,11 1,4 7,18 15,32 16,28 20,100 6,100 -5,0 -11,9 -14,20 -3,11 -13,23 -24,27 -10,3 -21,11 -25,17 -4,6 -64,12 -145,14 l -138,4 -2,47 c -1,38 -7,51 -32,73 -17,16 -39,28 -49,28 -10,0 -23,5 -29,11 -16,16 -215,-3 -240,-23 -22,-18 -14,0 12,28 14,15 25,39 25,55 0,24 -5,29 -35,35 -19,3 -61,3 -93,0 -47,-5 -53,-4 -37,5 18,11 102,76 115,89 3,3 39,27 80,55 41,27 77,53 78,57 2,5 8,8 13,8 5,0 28,12 51,26 67,43 126,72 158,79 16,4 32,11 35,16 4,5 19,9 34,9 15,0 32,5 39,12 17,17 234,17 240,0 4,-14 72,-17 72,-3 0,8 -19,17 -91,40 -43,13 -238,15 -259,1 z m 1091,-1306 c 17,-8 40,-23 52,-34 12,-10 44,-36 70,-59 l 48,-41 -53,-1 c -52,0 -154,-18 -173,-30 -5,-4 -24,-10 -41,-13 -17,-4 -40,-16 -52,-26 -23,-22 -50,-17 -142,29 -60,30 -72,55 -49,99 15,26 82,76 114,85 49,12 197,7 226,-9 z m 281,-226 c 47,-37 107,-78 114,-78 3,0 21,-11 40,-24 28,-19 32,-25 19,-30 -9,-3 -25,-6 -36,-6 -11,0 -27,-4 -37,-9 -9,-6 -30,-13 -47,-17 -16,-4 -32,-8 -35,-9 -3,-1 -20,-6 -38,-10 -18,-4 -35,-12 -38,-16 -9,-15 -45,-10 -123,18 -149,52 -195,107 -130,155 47,35 117,55 198,57 68,1 76,-1 113,-31 z m 418,-401 c 25,-7 57,-19 72,-27 31,-17 181,-160 175,-166 -2,-3 -16,0 -31,6 -70,26 -269,6 -291,-30 -23,-38 -195,62 -195,114 0,35 78,96 122,96 13,0 30,5 38,10 20,13 55,12 110,-3 z m 292,-260 c 14,-7 38,-28 55,-47 32,-37 87,-120 81,-124 -11,-8 -116,-26 -149,-26 -22,0 -60,-5 -84,-11 -42,-11 -45,-10 -114,34 -120,79 -123,130 -7,173 43,16 188,17 218,1 z m 272,-536 c 3,-4 25,-11 50,-14 68,-10 154,-54 207,-107 53,-53 58,-68 33,-105 -27,-42 -68,-55 -171,-55 -104,0 -154,15 -174,51 -24,46 -121,152 -173,190 l -39,29 39,1 c 21,0 48,4 59,9 26,11 162,12 169,1 z m 81,-341 c 17,-13 86,-22 185,-25 104,-2 132,-12 190,-67 51,-47 67,-82 51,-111 -41,-77 -204,-82 -357,-11 -23,11 -42,35 -72,94 -55,105 -65,124 -77,133 -13,11 67,-2 80,-13 z"
         inkscape:connector-curvature="0"
         style="fill:#f0c674;fill-opacity:1" />
      <path
         id="path4978"
         d="m 4045,13853 c -59,-16 -179,-123 -222,-197 -32,-56 -92,-185 -99,-211 -4,-17 -10,-34 -14,-40 -7,-10 -23,-75 -25,-105 -1,-8 -4,-22 -7,-30 -7,-15 -10,-35 -28,-160 -5,-36 -9,-115 -9,-177 -1,-98 -4,-120 -27,-170 -32,-74 -39,-91 -54,-130 -14,-38 -19,-40 -51,-14 -23,18 -65,26 -117,22 -53,-3 -161,-148 -187,-251 -5,-21 -23,-66 -32,-79 -1,-2 -10,2 -19,10 -10,8 -38,13 -71,13 -75,-2 -99,-25 -153,-149 -9,-21 -17,-60 -28,-140 l -7,-50 -22,35 c -12,19 -32,41 -43,48 -19,12 -25,11 -46,-9 -13,-12 -24,-29 -24,-36 0,-7 -4,-21 -9,-31 -19,-37 -31,-90 -31,-135 0,-25 -4,-49 -10,-52 -6,-4 -10,26 -10,84 0,49 -4,92 -8,95 -5,3 -14,-12 -22,-32 -7,-20 -16,-39 -19,-42 -3,-3 -18,-23 -33,-46 -14,-22 -56,-72 -92,-110 -79,-81 -226,-260 -226,-273 0,-5 -4,-11 -9,-13 -35,-13 -201,-311 -201,-361 0,-14 -4,-28 -9,-31 -5,-3 -12,-40 -16,-81 l -7,-75 -38,0 c -45,0 -78,-25 -110,-85 -16,-29 -24,-69 -32,-155 -8,-97 -13,-144 -17,-170 -1,-2 -6,1 -13,8 -18,18 -77,14 -106,-7 -15,-11 -34,-34 -43,-53 -9,-18 -22,-46 -30,-61 -14,-30 -18,-181 -6,-229 7,-26 6,-27 -25,-22 -40,7 -88,-10 -88,-30 0,-8 -5,-16 -11,-18 -16,-5 -24,-183 -11,-230 12,-45 7,-47 -30,-11 -33,31 -44,25 -60,-33 -12,-44 -13,-107 -3,-204 l 7,-65 -24,26 c -12,14 -28,34 -35,45 -6,10 -45,73 -86,139 -41,66 -92,154 -112,195 -20,41 -40,83 -46,92 -5,10 -9,23 -9,29 0,6 -6,25 -14,42 -24,55 -36,90 -47,142 -16,66 -23,253 -11,268 5,7 13,28 16,47 l 7,35 -26,-30 c -13,-16 -25,-39 -25,-50 0,-12 -5,-26 -11,-32 -21,-21 -4,-280 25,-368 1,-5 6,-28 11,-49 4,-22 14,-51 21,-65 8,-14 14,-31 14,-37 0,-16 24,-64 33,-64 4,0 7,-7 7,-15 0,-13 58,-133 70,-145 7,-7 26,-40 51,-87 13,-24 26,-43 31,-43 4,0 8,-5 8,-10 0,-6 24,-43 52,-83 62,-85 51,-71 138,-179 39,-48 70,-96 70,-106 0,-10 4,-22 9,-27 10,-11 30,-106 38,-178 7,-64 -12,-92 -66,-100 -64,-8 -121,10 -164,51 -54,52 -67,82 -67,152 0,62 5,69 41,49 34,-18 69,13 69,59 0,72 -78,111 -119,61 -40,-48 -70,-206 -42,-223 4,-3 11,-24 15,-46 3,-22 10,-40 14,-40 4,0 16,-19 27,-41 35,-74 164,-160 237,-158 40,1 84,25 112,63 18,23 21,41 19,109 0,50 -7,97 -17,119 -34,78 -20,67 119,-97 28,-33 66,-78 86,-100 20,-22 58,-67 85,-101 51,-63 107,-131 160,-193 38,-45 124,-156 144,-186 41,-61 62,-90 149,-205 52,-69 129,-167 170,-219 42,-51 83,-103 91,-115 8,-11 30,-39 50,-62 19,-23 51,-60 70,-83 19,-23 48,-57 64,-74 27,-30 28,-31 21,-7 -4,14 -11,27 -14,30 -4,3 -22,25 -41,50 -19,25 -37,47 -41,50 -6,5 -98,126 -159,210 -72,98 -207,286 -223,310 -9,14 -44,63 -77,110 -33,47 -63,92 -67,100 -3,8 -19,32 -35,52 -16,20 -45,61 -65,90 -20,29 -40,57 -45,63 -4,5 -23,29 -40,52 -44,55 -118,148 -143,178 -11,14 -35,44 -53,67 -18,24 -56,72 -85,108 -29,36 -90,113 -136,172 -45,59 -87,110 -92,114 -5,3 -21,23 -34,44 -19,31 -25,56 -30,136 -8,124 1,141 47,93 44,-46 148,-185 148,-198 0,-6 4,-11 8,-11 4,0 25,-31 46,-70 44,-82 71,-94 62,-27 -3,23 -6,49 -7,57 0,8 -4,24 -9,35 -5,11 -16,39 -26,63 -10,23 -21,42 -26,42 -4,0 -8,4 -8,10 0,5 -15,31 -34,57 -36,52 -57,93 -81,162 -41,118 12,202 105,165 44,-18 130,-108 130,-136 0,-9 5,-20 10,-23 13,-8 13,-72 1,-80 -5,-3 -25,2 -44,11 -42,20 -64,14 -78,-23 -16,-40 14,-92 66,-116 35,-17 42,-18 65,-4 52,31 71,106 49,191 -16,63 -42,140 -48,146 -3,3 -15,21 -25,40 -11,19 -39,55 -63,79 -33,34 -43,53 -45,80 -4,96 13,203 37,227 17,17 54,18 91,1 97,-42 164,-122 164,-195 0,-52 -7,-56 -42,-27 -32,27 -86,33 -106,13 -19,-19 -14,-73 9,-101 11,-15 36,-34 55,-43 33,-16 37,-16 71,2 19,11 40,30 45,44 6,14 14,33 19,42 16,32 10,100 -17,176 -31,91 -46,115 -98,166 l -40,38 1,85 c 1,46 4,87 7,90 3,4 6,15 6,26 0,24 46,87 64,87 17,0 66,-23 66,-32 0,-3 11,-19 24,-35 13,-15 25,-32 26,-38 5,-21 14,-40 20,-45 9,-6 39,-118 58,-209 7,-33 8,-34 25,-17 13,13 17,32 17,65 -4,121 63,190 141,148 45,-23 84,-51 104,-71 35,-36 85,-103 85,-114 0,-6 4,-12 8,-14 11,-4 59,-142 67,-193 4,-22 10,-49 14,-60 10,-23 30,-122 37,-180 3,-22 9,-49 14,-60 8,-18 24,-127 37,-247 8,-80 23,-54 23,40 -1,80 -6,128 -30,297 -5,33 -14,96 -20,140 -6,44 -15,89 -19,100 -5,11 -17,53 -26,94 -10,41 -24,86 -30,100 -7,14 -19,41 -26,59 -8,17 -17,32 -21,32 -5,0 -8,5 -8,11 0,33 -146,185 -203,212 -56,27 -101,22 -130,-13 -14,-16 -31,-43 -38,-60 -16,-34 -29,-39 -29,-10 0,10 -5,32 -11,47 -34,82 -42,101 -62,139 -19,39 -20,46 -7,98 7,31 17,59 22,62 4,3 8,12 8,21 0,16 30,85 40,93 4,3 13,16 19,28 7,13 14,22 16,20 2,-1 8,-47 14,-101 7,-56 20,-116 31,-141 56,-119 162,-151 238,-73 38,39 54,95 59,210 3,65 8,87 18,87 8,0 17,-4 20,-10 11,-18 64,-11 91,12 34,30 74,120 74,168 0,41 13,44 29,7 7,-18 19,-46 27,-64 8,-17 14,-38 14,-47 0,-9 3,-16 8,-16 4,0 16,-28 26,-63 11,-34 26,-73 33,-87 7,-14 13,-31 13,-38 0,-7 5,-21 10,-32 24,-49 28,-58 35,-90 4,-19 11,-41 16,-50 4,-8 16,-42 25,-75 9,-33 21,-64 26,-69 4,-6 8,-18 8,-27 0,-10 13,-59 30,-109 17,-50 30,-100 30,-110 0,-10 4,-21 9,-24 5,-3 12,-27 16,-52 3,-26 10,-56 15,-68 19,-49 24,-63 36,-111 7,-27 17,-66 23,-85 5,-19 15,-55 22,-80 6,-25 15,-54 20,-65 4,-11 11,-33 15,-50 4,-16 8,-32 9,-35 1,-3 5,-18 9,-35 4,-16 11,-39 16,-50 5,-11 13,-40 20,-65 6,-25 16,-61 21,-80 6,-19 16,-56 22,-82 7,-25 15,-50 20,-54 4,-4 7,-18 7,-30 0,-13 4,-25 9,-28 5,-3 12,-21 15,-41 4,-19 12,-37 17,-41 13,-8 2,76 -12,91 -5,5 -9,17 -9,26 0,19 -28,116 -40,139 -4,9 -11,36 -15,60 -4,24 -11,51 -15,60 -5,8 -16,42 -24,75 -9,33 -21,74 -26,90 -4,17 -11,49 -15,72 -4,24 -11,45 -16,49 -5,3 -9,18 -9,33 0,15 -3,31 -7,35 -5,4 -13,33 -20,64 -6,31 -16,75 -23,97 -6,22 -18,67 -26,100 -8,33 -19,76 -24,95 -5,19 -15,60 -22,90 -7,30 -16,60 -19,65 -4,6 -10,28 -13,50 -4,22 -16,67 -26,100 -11,33 -27,87 -36,120 -10,33 -21,65 -25,70 -3,6 -10,30 -14,55 -4,24 -11,51 -16,60 -4,8 -15,40 -24,70 -9,30 -20,64 -25,75 -4,11 -16,47 -26,80 -9,33 -21,65 -24,70 -4,6 -11,26 -15,45 -4,19 -10,40 -14,45 -4,6 -16,37 -26,70 -11,33 -22,65 -26,70 -23,36 -30,107 -20,189 16,136 41,158 91,81 23,-35 37,-65 71,-152 5,-13 13,-33 18,-45 5,-13 19,-52 31,-88 23,-68 37,-104 50,-131 5,-9 12,-33 15,-53 4,-20 11,-39 16,-42 5,-3 9,-16 9,-29 0,-13 4,-26 9,-30 6,-3 13,-26 17,-50 3,-25 10,-45 15,-45 5,0 9,-8 9,-19 0,-18 24,-106 40,-146 5,-11 13,-40 20,-65 6,-25 16,-61 22,-80 5,-19 15,-57 22,-85 7,-27 15,-57 18,-65 4,-8 10,-28 14,-45 4,-16 8,-34 10,-40 2,-5 8,-26 13,-45 29,-106 43,-158 48,-185 3,-16 9,-34 13,-40 5,-5 11,-28 15,-50 3,-22 10,-49 15,-60 4,-11 15,-47 24,-80 9,-33 21,-73 26,-90 4,-16 11,-49 15,-72 4,-24 11,-45 16,-49 5,-3 9,-18 9,-34 0,-16 5,-32 10,-35 6,-3 10,-17 10,-31 0,-14 4,-22 10,-19 12,8 13,52 1,59 -5,3 -12,33 -16,66 -4,33 -11,63 -16,66 -5,3 -9,18 -9,34 0,16 -5,32 -10,35 -6,4 -8,10 -6,13 2,4 -2,34 -10,67 -29,117 -46,190 -51,220 -3,17 -9,35 -13,40 -4,6 -11,33 -14,60 -7,47 -19,96 -37,140 -4,11 -12,45 -18,75 -11,55 -34,155 -51,220 -5,19 -15,58 -22,87 -7,28 -16,55 -21,59 -4,4 -7,18 -7,30 0,13 -4,25 -9,28 -5,4 -12,29 -16,56 -4,27 -11,52 -16,56 -5,3 -9,15 -9,28 0,12 -3,26 -7,30 -5,4 -8,11 -9,14 -1,19 -16,80 -24,97 -4,11 -22,67 -40,125 -17,58 -36,113 -41,122 -5,10 -9,27 -9,37 0,11 -4,22 -9,25 -19,12 -33,136 -26,224 11,134 45,183 128,184 36,0 46,-5 77,-40 41,-45 79,-157 60,-176 -5,-5 -10,-20 -10,-31 0,-12 -9,-30 -20,-40 -14,-12 -20,-14 -20,-5 0,7 -8,19 -17,26 -70,53 -143,-65 -78,-126 38,-35 88,-31 132,12 60,57 73,100 73,235 0,106 -3,123 -25,167 -22,43 -23,54 -14,95 24,113 65,179 124,201 47,18 98,-9 132,-68 34,-58 37,-229 5,-240 -7,-2 -12,0 -10,5 5,19 -14,51 -38,63 -31,17 -51,7 -78,-40 -15,-26 -17,-36 -8,-51 7,-10 12,-25 12,-33 0,-26 42,-56 77,-56 26,0 43,10 78,45 25,24 45,50 45,57 0,7 7,27 16,43 21,41 21,197 -1,261 -15,44 -15,51 1,98 25,75 65,157 81,163 28,11 41,-15 83,-162 5,-16 12,-81 16,-142 4,-73 11,-113 18,-113 6,1 22,23 35,51 24,49 25,53 14,157 -11,109 -5,188 19,269 7,23 16,43 20,43 4,0 8,6 8,13 0,7 16,32 36,55 28,33 42,42 68,42 19,0 39,-7 48,-17 21,-26 48,-88 48,-111 0,-12 5,-24 10,-27 25,-15 -1,-166 -28,-165 -4,0 -14,15 -22,33 -26,56 -72,43 -107,-31 -15,-31 -15,-36 0,-68 16,-32 20,-34 66,-34 46,0 54,4 91,41 37,38 53,65 89,152 20,49 7,189 -21,233 -16,25 100,214 131,214 67,0 107,-676 73,-1210 -15,-221 -31,-604 -26,-609 2,-2 10,-1 19,2 12,5 15,24 16,84 1,114 17,393 29,508 18,186 37,535 39,727 1,74 2,78 39,121 44,52 120,109 182,138 25,11 52,24 60,29 9,4 30,11 48,15 18,3 32,11 32,16 0,5 6,9 14,9 15,0 80,34 183,96 18,10 33,22 33,27 0,4 6,7 13,7 19,0 155,139 174,177 18,38 12,53 -12,29 -46,-45 -155,-113 -155,-96 0,6 4,18 10,28 10,19 30,67 54,130 9,25 16,73 16,117 0,72 -1,76 -35,110 -41,40 -65,43 -120,15 -45,-23 -175,-147 -175,-167 0,-19 -21,-16 -50,7 -57,45 -141,8 -214,-94 -44,-61 -106,-182 -106,-205 0,-6 -4,-11 -9,-11 -5,0 -12,21 -16,47 -8,55 -38,103 -65,103 -10,0 -34,-19 -54,-42 -52,-60 -52,-60 -83,-119 -15,-30 -34,-60 -40,-67 -7,-7 -13,-20 -13,-28 0,-21 -23,-17 -38,6 -19,32 -71,48 -110,36 -73,-22 -172,-162 -188,-265 -4,-23 -13,-49 -20,-58 -12,-16 -13,-15 -14,14 0,17 -4,35 -10,38 -5,3 -10,14 -10,24 0,22 -30,51 -53,51 -14,0 -17,11 -17,63 0,93 20,281 30,291 6,6 10,22 10,37 0,15 4,30 9,33 5,3 12,22 15,41 11,58 83,183 139,242 29,30 74,66 101,79 49,24 106,32 106,16 0,-5 11,-14 24,-20 52,-24 53,-131 2,-174 -29,-24 -79,-32 -106,-18 -21,11 -21,12 21,50 37,35 41,43 35,72 -7,36 -20,48 -53,48 -91,0 -153,-107 -113,-197 21,-46 62,-67 120,-60 48,6 139,49 153,73 4,7 13,19 20,26 29,28 50,107 44,161 -11,102 -66,168 -144,173 -26,1 -57,0 -68,-3 z m 976,-349 c 21,-23 24,-34 23,-102 0,-52 -6,-87 -17,-107 -9,-16 -17,-36 -17,-44 0,-28 -67,-73 -170,-114 -14,-5 -33,-13 -42,-18 -22,-11 -51,-12 -46,-1 48,97 68,167 68,233 0,124 133,226 201,153 z m -312,-163 c 16,-22 21,-44 21,-89 0,-34 -4,-64 -10,-67 -5,-3 -10,-15 -10,-27 0,-37 -30,-85 -68,-106 -20,-11 -72,-57 -116,-101 -43,-45 -80,-81 -83,-81 -2,0 -3,33 0,73 10,178 51,298 128,382 35,38 47,45 80,45 30,0 42,-6 58,-29 z M 2658,11650 c 19,-40 17,-35 27,-78 4,-18 12,-35 16,-38 12,-7 11,-131 -1,-139 -5,-3 -10,-14 -10,-24 0,-26 -48,-71 -75,-71 -36,0 -107,86 -127,154 -22,70 -23,100 -3,116 8,7 15,16 15,21 0,5 22,30 48,57 27,26 55,58 62,72 l 13,25 10,-30 c 5,-17 16,-46 25,-65 z m -234,-206 c 3,-9 6,-35 6,-59 0,-24 5,-47 10,-50 6,-3 10,-14 10,-24 0,-10 11,-35 25,-55 49,-72 22,-246 -41,-262 -89,-22 -174,80 -174,209 0,59 3,68 40,118 23,30 55,73 72,97 35,46 43,50 52,26 z"
         inkscape:connector-curvature="0"
         style="fill:#f0c674;fill-opacity:1" />
      <path
         id="path4980"
         d="m 7863,13833 c -25,-5 -53,-38 -53,-64 0,-9 11,-28 25,-44 30,-31 68,-29 98,8 22,25 16,75 -10,95 -17,12 -21,13 -60,5 z"
         inkscape:connector-curvature="0"
         style="fill:#f0c674;fill-opacity:1" />
      <path
         id="path4982"
         d="m 11033,13638 c -6,-7 -13,-25 -17,-40 -9,-39 -52,-85 -91,-98 -24,-8 -35,-18 -35,-31 0,-45 115,-9 184,58 70,68 73,123 7,123 -21,0 -43,-6 -48,-12 z"
         inkscape:connector-curvature="0"
         style="fill:#f0c674;fill-opacity:1" />
      <path
         id="path4984"
         d="m 11184,13549 c -38,-28 -76,-54 -84,-57 -30,-11 -70,-44 -65,-53 7,-11 62,-12 69,-1 7,12 102,56 166,76 70,23 100,44 100,67 0,16 -8,19 -59,19 -55,0 -63,-3 -127,-51 z"
         inkscape:connector-curvature="0"
         style="fill:#f0c674;fill-opacity:1" />
      <path
         id="path4986"
         d="m 11270,13480 c -8,-5 -24,-10 -35,-10 -28,-1 -85,-30 -125,-63 -31,-26 -32,-29 -17,-45 15,-15 20,-14 59,8 34,19 63,26 133,30 l 90,5 3,30 c 2,24 -3,32 -25,43 -32,14 -62,15 -83,2 z"
         inkscape:connector-curvature="0"
         style="fill:#f0c674;fill-opacity:1" />
      <path
         id="path4988"
         d="m 9790,11850 c 0,-5 9,-10 20,-10 11,0 20,5 20,10 0,6 -9,10 -20,10 -11,0 -20,-4 -20,-10 z"
         inkscape:connector-curvature="0"
         style="fill:#f0c674;fill-opacity:1" />
      <path
         id="path4990"
         d="m 9720,11829 c 0,-5 -4,-8 -9,-4 -5,3 -13,0 -17,-6 -5,-9 0,-10 17,-6 13,4 32,7 42,7 9,0 17,5 17,10 0,6 -11,10 -25,10 -14,0 -25,-5 -25,-11 z"
         inkscape:connector-curvature="0"
         style="fill:#f0c674;fill-opacity:1" />
      <path
         id="path4992"
         d="m 1693,11293 c -15,-31 -17,-99 -4,-107 4,-3 11,-19 14,-35 11,-54 77,-137 102,-127 20,7 19,26 -2,56 -23,32 -25,42 -30,125 -2,39 -9,80 -15,93 -16,31 -50,28 -65,-5 z"
         inkscape:connector-curvature="0"
         style="fill:#f0c674;fill-opacity:1" />
      <path
         id="path4994"
         d="m 1565,11291 c -15,-18 -15,-22 1,-72 10,-30 39,-82 66,-115 26,-34 48,-65 48,-69 0,-15 42,-65 51,-60 15,10 9,48 -12,80 -10,17 -24,41 -29,55 -6,14 -18,38 -26,54 -8,16 -14,33 -14,37 0,21 -35,87 -51,97 -13,8 -21,7 -34,-7 z"
         inkscape:connector-curvature="0"
         style="fill:#f0c674;fill-opacity:1" />
      <path
         id="path4996"
         d="m 13320,11264 c 1,-26 65,-64 107,-64 31,0 146,-32 154,-42 9,-13 79,-22 79,-11 0,18 -39,61 -73,81 -21,13 -60,22 -112,26 -44,3 -97,9 -117,12 -21,4 -38,3 -38,-2 z"
         inkscape:connector-curvature="0"
         style="fill:#f0c674;fill-opacity:1" />
      <path
         id="path4998"
         d="m 1527,11053 c -4,-3 -7,-25 -7,-47 0,-35 4,-43 27,-53 15,-7 35,-13 46,-13 22,0 75,-56 83,-87 9,-34 44,-31 44,4 0,30 -30,103 -42,103 -4,0 -8,6 -8,14 0,8 -15,26 -32,40 -18,15 -38,31 -45,36 -14,11 -56,13 -66,3 z"
         inkscape:connector-curvature="0"
         style="fill:#f0c674;fill-opacity:1" />
      <path
         id="path5000"
         d="m 13886,10409 c -33,-28 -40,-30 -103,-28 -81,3 -95,-15 -37,-46 69,-37 235,-20 249,26 8,24 -3,43 -34,62 -37,22 -34,22 -75,-14 z"
         inkscape:connector-curvature="0"
         style="fill:#f0c674;fill-opacity:1" />
      <path
         id="path5002"
         d="m 13820,10267 c 0,-22 53,-44 124,-52 33,-4 69,-12 80,-17 12,-6 29,-15 38,-20 10,-4 36,-8 58,-8 50,0 62,21 30,55 -27,29 -61,37 -155,40 -38,1 -94,6 -122,10 -45,7 -53,5 -53,-8 z"
         inkscape:connector-curvature="0"
         style="fill:#f0c674;fill-opacity:1" />
      <path
         id="path5004"
         d="m 13821,10186 c -20,-23 3,-46 46,-46 36,0 101,-29 123,-54 7,-9 28,-24 46,-32 27,-13 37,-14 49,-4 34,28 8,78 -57,108 -82,38 -187,52 -207,28 z"
         inkscape:connector-curvature="0"
         style="fill:#f0c674;fill-opacity:1" />
      <path
         id="path5006"
         d="m 972,9728 c -33,-33 6,-128 87,-211 29,-30 53,-47 65,-45 30,5 29,21 -5,59 -34,37 -69,109 -69,140 0,28 -29,69 -49,69 -9,0 -22,-5 -29,-12 z"
         inkscape:connector-curvature="0"
         style="fill:#f0c674;fill-opacity:1" />
      <path
         id="path5008"
         d="m 842,9677 c -17,-20 35,-114 83,-147 22,-16 60,-49 85,-74 24,-25 50,-46 57,-46 29,0 10,45 -42,99 -30,32 -55,61 -55,65 0,11 -52,78 -75,98 -24,21 -39,22 -53,5 z"
         inkscape:connector-curvature="0"
         style="fill:#f0c674;fill-opacity:1" />
      <path
         id="path5010"
         d="m 2761,9578 c -1,-16 4,-28 9,-28 12,0 12,8 0,35 -8,18 -9,17 -9,-7 z"
         inkscape:connector-curvature="0"
         style="fill:#f0c674;fill-opacity:1" />
      <path
         id="path5012"
         d="m 877,9443 c -12,-11 -8,-78 5,-91 7,-7 34,-12 60,-12 44,0 54,-4 97,-45 26,-25 51,-45 55,-45 13,0 6,58 -9,70 -8,7 -15,18 -15,24 0,41 -167,126 -193,99 z"
         inkscape:connector-curvature="0"
         style="fill:#f0c674;fill-opacity:1" />
      <path
         id="path5014"
         d="m 12316,8272 c 33,-31 98,-91 144,-132 46,-41 125,-114 175,-161 49,-48 117,-109 150,-137 33,-28 71,-63 85,-79 27,-30 175,-163 286,-256 168,-141 234,-196 305,-252 35,-27 69,-55 74,-62 8,-9 90,-75 150,-120 52,-40 185,-168 185,-179 0,-8 4,-14 9,-14 5,0 12,-13 16,-30 4,-16 10,-30 15,-30 11,0 21,-38 22,-85 1,-55 -21,-57 -78,-8 -25,21 -64,53 -87,71 -23,18 -72,62 -108,98 -37,35 -70,64 -73,64 -12,0 -6,-31 13,-74 11,-23 59,-82 108,-132 110,-111 121,-125 157,-196 19,-38 29,-72 29,-107 2,-98 -53,-114 -172,-50 -57,31 -121,92 -121,116 0,7 -5,22 -12,32 -20,33 -4,50 41,44 29,-4 44,-1 56,11 24,24 16,75 -17,99 -36,27 -75,25 -107,-7 -24,-25 -26,-32 -25,-109 1,-74 5,-88 39,-152 40,-74 121,-161 165,-176 37,-13 80,-104 80,-168 0,-64 -19,-81 -91,-81 -50,1 -99,21 -165,67 -23,17 -64,81 -64,101 0,23 19,29 37,11 18,-18 56,-6 72,23 15,25 14,29 -15,65 -40,49 -76,55 -109,17 -43,-50 -43,-127 1,-216 13,-27 28,-54 33,-60 46,-58 85,-97 114,-112 29,-16 35,-26 46,-80 7,-33 17,-77 22,-96 6,-19 9,-57 7,-84 -4,-62 -37,-92 -89,-81 -32,7 -149,107 -149,127 0,5 -10,24 -23,41 -31,45 -46,69 -56,94 -10,21 -29,38 -36,31 -2,-2 2,-22 10,-43 19,-54 19,-131 -1,-164 -30,-51 -93,-64 -154,-31 -19,10 -44,23 -55,28 -21,11 -157,151 -191,198 -35,49 -99,156 -135,224 -18,36 -36,67 -40,70 -3,3 -10,16 -14,30 -4,14 -11,27 -14,30 -4,3 -21,34 -39,70 -18,36 -48,94 -68,130 -21,36 -50,91 -66,122 -16,32 -34,60 -39,63 -5,4 -9,14 -9,24 0,9 -10,28 -22,41 -13,14 -22,26 -21,27 1,1 -1,12 -4,23 -6,23 -23,27 -23,5 0,-8 5,-15 10,-15 6,0 10,-5 10,-12 0,-7 18,-48 39,-93 22,-44 49,-102 61,-130 40,-91 174,-359 222,-444 27,-46 48,-86 48,-88 0,-9 107,-173 145,-223 63,-82 161,-175 212,-201 57,-29 131,-31 160,-3 19,19 53,84 57,110 4,26 15,26 22,0 3,-14 10,-26 15,-26 5,0 9,-6 9,-12 0,-7 23,-40 51,-73 l 50,-60 -4,-75 c -3,-41 -9,-95 -15,-120 -39,-172 -54,-204 -67,-148 -4,18 -7,39 -6,46 1,8 -2,19 -7,25 -4,7 -15,32 -22,56 -19,59 -91,138 -139,151 -67,18 -108,2 -151,-60 -23,-32 -24,-42 -23,-151 l 2,-116 -40,-6 c -22,-3 -49,-13 -60,-23 -31,-28 -59,-102 -59,-156 0,-60 -15,-60 -45,-2 -11,21 -23,41 -27,42 -5,2 -8,8 -8,13 0,10 -15,46 -77,179 -19,41 -38,84 -43,95 -9,21 -68,150 -101,221 -10,22 -19,43 -19,47 0,4 -15,40 -34,80 -59,125 -96,208 -96,216 0,5 -18,44 -40,87 -22,43 -40,85 -40,92 0,6 -4,12 -10,12 -5,0 -10,7 -10,16 0,13 -240,513 -270,564 -5,8 -17,31 -27,50 -9,19 -21,38 -26,41 -5,3 -9,9 -9,12 0,19 -12,47 -19,47 -15,0 -10,-16 21,-77 17,-31 30,-63 30,-69 0,-7 3,-14 8,-16 7,-3 62,-108 62,-120 0,-4 29,-67 64,-140 82,-173 96,-204 96,-217 0,-6 4,-11 9,-11 5,0 12,-12 16,-27 4,-16 22,-60 41,-99 19,-39 34,-74 34,-78 0,-3 14,-37 31,-74 33,-70 75,-163 89,-197 4,-11 15,-36 24,-57 9,-20 16,-40 16,-45 0,-10 17,-49 51,-116 10,-22 19,-43 19,-47 0,-5 14,-38 30,-73 17,-36 30,-69 30,-75 0,-9 17,-48 51,-115 10,-22 19,-43 19,-47 0,-5 14,-38 30,-73 17,-36 30,-69 30,-74 0,-16 25,-63 33,-63 5,0 6,-3 4,-8 -3,-4 3,-25 14,-46 10,-22 19,-43 19,-47 0,-7 29,-74 78,-179 9,-19 17,-39 18,-45 1,-5 8,-23 15,-40 7,-16 18,-70 24,-120 5,-49 15,-90 20,-89 6,1 32,41 58,90 27,49 52,91 55,94 4,3 12,12 17,22 27,44 130,204 135,208 3,3 21,37 40,75 19,39 38,72 43,73 4,2 7,8 7,14 0,9 49,121 71,160 5,10 9,26 9,36 0,10 4,22 9,27 10,10 24,70 42,180 6,33 8,106 4,163 -5,94 1,123 20,92 12,-20 52,-9 90,24 37,31 39,36 43,102 4,76 -13,209 -39,303 -3,10 11,14 58,15 74,1 107,26 117,87 8,51 -10,161 -34,212 -11,23 -20,42 -20,44 0,2 15,3 33,3 19,0 44,10 62,24 29,24 30,26 29,106 -1,45 -7,87 -13,93 -6,6 -11,21 -11,32 0,12 -3,25 -7,29 -4,3 -8,12 -9,19 -1,7 -6,21 -10,31 -6,16 -4,18 12,11 76,-31 99,-13 90,71 -6,54 -39,158 -66,207 -18,31 8,19 63,-30 89,-82 272,-266 298,-301 13,-19 33,-46 45,-60 54,-70 134,-215 134,-243 0,-9 6,-19 13,-21 9,-4 12,-40 12,-136 0,-106 3,-132 14,-132 11,0 13,25 9,134 -2,74 -9,141 -14,148 -5,7 -16,31 -23,53 -34,101 -169,345 -192,345 -5,0 -9,6 -9,13 0,12 -283,296 -340,342 -14,11 -48,39 -76,63 -27,23 -54,42 -60,42 -11,1 -94,135 -94,153 0,7 -5,18 -11,24 -5,5 -9,36 -7,68 3,53 6,60 33,76 32,19 104,24 133,10 106,-52 128,-70 153,-130 22,-50 13,-71 -30,-71 -53,0 -67,-49 -31,-107 46,-76 120,-12 120,102 0,156 -176,335 -330,335 -51,0 -59,-3 -96,-38 -22,-21 -40,-47 -41,-58 -1,-10 -3,-24 -4,-29 -6,-22 24,-130 48,-173 29,-52 28,-52 -106,52 -57,45 -115,90 -130,100 -14,11 -40,31 -57,45 -18,15 -45,36 -60,48 -25,18 -78,61 -253,201 -55,44 -115,92 -126,100 -9,6 -39,32 -264,225 -45,40 -111,97 -145,128 -143,131 -247,219 -259,219 -6,0 15,-26 49,-58 z m 1039,-3054 c 20,-17 46,-52 57,-77 11,-25 24,-54 28,-63 5,-9 12,-45 16,-80 7,-70 3,-83 -74,-222 -50,-90 -62,-94 -62,-20 0,59 -28,174 -42,174 -4,0 -8,6 -8,13 0,7 -18,31 -40,52 l -40,39 0,88 c 0,110 12,128 82,128 39,0 54,-6 83,-32 z m -151,-345 c 20,-21 39,-49 43,-63 3,-14 10,-30 15,-37 5,-6 12,-45 15,-86 5,-71 4,-77 -22,-111 -26,-34 -60,-90 -87,-143 -15,-30 -24,-29 -32,5 -4,15 -25,65 -48,112 -40,83 -41,88 -42,195 -1,139 11,165 78,165 37,0 49,-5 80,-37 z"
         inkscape:connector-curvature="0"
         style="fill:#f0c674;fill-opacity:1" />
      <path
         id="path5016"
         d="m 485,7646 c -52,-52 -59,-81 -53,-204 4,-81 8,-95 55,-189 28,-55 56,-107 62,-115 12,-14 57,-72 99,-128 26,-34 261,-271 296,-299 10,-7 47,-38 81,-67 35,-30 66,-54 70,-54 15,0 33,-28 40,-61 7,-38 24,-94 36,-124 4,-11 11,-31 15,-45 4,-14 10,-27 13,-30 4,-3 15,-26 25,-52 10,-27 22,-48 27,-48 5,0 9,-6 9,-14 0,-16 123,-201 156,-234 26,-27 24,-42 -8,-42 -32,0 -87,-39 -94,-66 -23,-91 47,-212 190,-329 27,-22 61,-48 75,-57 26,-18 26,-18 -42,-18 -146,0 -138,-81 21,-218 56,-48 102,-78 102,-67 0,4 -22,30 -49,58 -27,29 -51,62 -55,73 -8,25 13,51 49,60 39,10 405,-20 500,-40 17,-4 66,-11 110,-16 44,-5 109,-14 145,-20 82,-13 242,-36 385,-55 61,-8 137,-19 170,-24 33,-6 105,-16 160,-24 55,-7 107,-16 115,-19 8,-4 35,-9 60,-13 25,-3 59,-8 75,-10 30,-4 76,-12 235,-41 130,-23 170,-27 170,-16 0,5 -28,15 -62,21 -35,7 -94,18 -133,26 -38,7 -99,19 -135,26 -36,7 -92,16 -125,20 -33,4 -123,20 -200,34 -77,15 -165,30 -196,35 -31,5 -68,14 -83,20 -15,5 -41,10 -57,10 -17,0 -38,4 -48,10 -10,5 -49,14 -87,19 -38,6 -91,15 -119,20 -85,18 -247,43 -510,80 -183,25 -223,35 -301,72 -83,40 -214,147 -214,175 0,8 -4,14 -9,14 -14,0 -22,65 -12,93 18,47 64,69 144,69 102,-1 170,-42 204,-122 14,-34 9,-40 -28,-40 -60,0 -74,-79 -22,-120 36,-28 75,-25 107,6 27,28 35,77 17,112 -5,9 -17,34 -26,55 -22,50 -103,130 -158,155 -71,33 -126,52 -151,52 -25,0 -72,50 -131,140 -37,55 -95,170 -95,188 0,7 -4,20 -9,30 -36,70 -51,143 -58,272 -4,87 -3,93 11,75 8,-11 16,-24 16,-30 0,-9 25,-48 104,-165 46,-69 237,-220 278,-220 8,0 20,-6 26,-12 9,-9 46,-13 112,-13 94,0 100,1 135,30 20,17 44,44 53,60 9,17 20,32 24,35 3,3 10,18 13,33 4,15 11,30 16,33 5,3 9,15 9,28 0,12 6,28 12,34 9,9 13,56 13,160 0,144 -9,206 -41,279 -8,17 -14,36 -14,42 0,6 -4,11 -8,11 -4,0 -16,20 -26,45 -10,24 -27,52 -37,61 -11,10 -19,22 -19,29 0,6 -27,38 -59,71 -56,57 -131,104 -164,104 -9,0 -19,5 -22,10 -9,15 -98,12 -132,-5 -52,-26 -82,-63 -89,-111 -9,-62 3,-142 27,-175 10,-15 19,-31 19,-36 0,-14 51,-59 87,-77 40,-20 66,-20 102,-2 74,39 83,138 17,198 -54,50 -127,-25 -82,-84 7,-10 18,-18 25,-18 6,0 11,-9 11,-20 0,-17 -7,-20 -39,-20 -32,0 -44,6 -69,34 -55,62 -54,160 2,221 27,29 39,35 74,35 54,0 121,-37 195,-109 61,-58 127,-170 127,-214 0,-13 5,-28 11,-34 12,-12 7,-162 -9,-270 -18,-118 -71,-213 -143,-258 -65,-42 -206,-29 -273,25 -76,61 -196,214 -196,251 0,5 -4,9 -10,9 -5,0 -10,5 -10,11 0,5 -11,34 -24,62 -13,29 -27,63 -31,77 -4,14 -12,30 -17,37 -6,8 -5,20 4,35 9,16 13,75 12,208 0,171 -1,189 -23,240 -12,30 -25,64 -29,75 -3,11 -16,37 -29,57 -12,21 -23,41 -23,46 0,15 -128,134 -138,128 -11,-6 -4,-54 9,-62 5,-3 9,-13 9,-23 0,-10 11,-26 23,-34 45,-29 101,-96 114,-138 16,-46 13,-166 -6,-259 -20,-96 -30,-192 -30,-306 -1,-61 -4,-113 -7,-117 -14,-14 -166,105 -271,212 -62,63 -113,117 -113,121 0,5 -16,28 -36,52 -19,23 -41,50 -47,58 -24,29 -73,115 -89,155 -45,114 -50,184 -18,251 27,55 50,75 97,81 32,4 43,1 66,-22 34,-35 57,-80 57,-115 0,-48 -42,-110 -74,-110 -3,0 -6,18 -6,40 0,77 -85,120 -119,59 -23,-42 -7,-94 46,-145 39,-38 50,-44 89,-44 53,0 91,32 117,100 25,67 22,110 -15,181 -51,95 -152,169 -234,169 -39,0 -50,-5 -89,-44 z"
         inkscape:connector-curvature="0"
         style="fill:#f0c674;fill-opacity:1" />
      <path
         id="path5018"
         d="m 14280,7086 c 0,-28 82,-106 111,-106 10,0 20,-4 23,-9 10,-16 85,-24 101,-11 26,21 18,66 -14,90 -18,12 -32,16 -36,10 -15,-25 -139,6 -160,40 -11,18 -25,10 -25,-14 z"
         inkscape:connector-curvature="0"
         style="fill:#f0c674;fill-opacity:1" />
      <path
         id="path5020"
         d="m 14325,6943 c 3,-15 16,-34 28,-42 12,-8 54,-45 92,-81 113,-107 145,-123 145,-70 0,39 -53,98 -117,129 -26,13 -69,39 -94,58 -56,40 -63,41 -54,6 z"
         inkscape:connector-curvature="0"
         style="fill:#f0c674;fill-opacity:1" />
      <path
         id="path5022"
         d="m 14271,6887 c -7,-7 8,-29 48,-73 33,-35 62,-76 66,-92 8,-37 47,-75 72,-70 29,5 29,59 0,105 -20,32 -73,84 -122,122 -19,14 -53,19 -64,8 z"
         inkscape:connector-curvature="0"
         style="fill:#f0c674;fill-opacity:1" />
      <path
         id="path5024"
         d="m 845,6040 c -18,-20 -18,-21 11,-56 44,-55 107,-86 187,-92 44,-3 67,-1 67,6 0,16 -41,42 -65,42 -11,0 -51,27 -89,60 -38,33 -75,60 -81,60 -7,0 -20,-9 -30,-20 z"
         inkscape:connector-curvature="0"
         style="fill:#f0c674;fill-opacity:1" />
      <path
         id="path5026"
         d="m 755,5929 c -9,-13 30,-56 67,-75 15,-8 43,-14 62,-14 19,0 61,-7 93,-15 71,-19 103,-19 103,-1 0,14 -24,25 -95,46 -22,7 -66,25 -97,41 -59,29 -121,38 -133,18 z"
         inkscape:connector-curvature="0"
         style="fill:#f0c674;fill-opacity:1" />
      <path
         id="path5028"
         d="m 933,5755 c -39,-17 -43,-42 -10,-73 30,-28 44,-28 101,4 39,22 51,24 74,16 53,-20 82,-23 82,-9 0,56 -166,98 -247,62 z"
         inkscape:connector-curvature="0"
         style="fill:#f0c674;fill-opacity:1" />
      <path
         id="path5030"
         d="m 13950,5480 c 0,-16 5,-30 10,-30 6,0 10,-6 10,-13 0,-20 91,-104 131,-120 46,-19 69,-4 69,45 0,46 -15,58 -71,58 -43,0 -51,4 -91,45 -24,24 -46,45 -50,45 -5,0 -8,-13 -8,-30 z"
         inkscape:connector-curvature="0"
         style="fill:#f0c674;fill-opacity:1" />
      <path
         id="path5032"
         d="m 13962,5352 c -16,-11 0,-44 49,-101 18,-22 47,-66 64,-97 31,-58 78,-104 92,-90 14,14 2,78 -22,116 -13,21 -41,51 -62,67 -21,15 -42,34 -47,42 -24,38 -62,70 -74,63 z"
         inkscape:connector-curvature="0"
         style="fill:#f0c674;fill-opacity:1" />
      <path
         id="path5034"
         d="m 13894,5285 c -3,-7 5,-29 19,-47 37,-50 57,-97 57,-135 0,-38 25,-83 46,-83 7,0 21,11 30,25 13,20 14,30 4,62 -20,66 -44,107 -86,151 -44,44 -61,51 -70,27 z"
         inkscape:connector-curvature="0"
         style="fill:#f0c674;fill-opacity:1" />
      <path
         id="path5036"
         d="m 1886,5251 c -3,-4 18,-30 45,-57 41,-40 89,-114 89,-138 0,-8 -63,5 -76,15 -6,5 -55,18 -109,30 -158,33 -219,11 -220,-77 -1,-62 13,-90 78,-153 63,-61 102,-89 186,-132 l 65,-33 -63,-12 c -39,-7 -70,-19 -84,-32 -19,-19 -19,-24 -7,-47 7,-14 34,-41 59,-60 25,-19 51,-38 56,-42 6,-5 39,-23 75,-42 36,-19 74,-40 85,-48 19,-13 19,-13 -2,-13 -33,0 -92,-39 -99,-64 -5,-23 24,-106 38,-106 5,0 8,-6 8,-13 0,-13 70,-87 82,-87 3,0 29,-15 57,-34 27,-19 56,-36 63,-39 9,-3 5,-13 -14,-34 -16,-16 -28,-36 -28,-44 0,-31 121,-125 225,-175 l 40,-19 -57,-3 c -32,-2 -58,-7 -58,-12 0,-8 31,-52 169,-235 108,-144 261,-270 352,-290 16,-4 31,-11 34,-16 4,-5 15,-9 27,-9 17,0 18,-2 8,-15 -7,-8 -20,-15 -30,-15 -9,0 -25,-9 -35,-20 -18,-20 -18,-21 1,-47 22,-30 93,-71 169,-97 28,-10 59,-22 70,-26 11,-5 34,-11 50,-15 27,-6 22,-9 -50,-30 -167,-48 -257,-60 -465,-59 -165,1 -207,4 -270,22 -108,30 -240,87 -240,104 0,5 -7,8 -15,8 -24,0 -18,-18 13,-37 15,-10 29,-20 32,-24 10,-12 156,-77 190,-84 19,-4 41,-11 50,-16 64,-34 436,-44 595,-16 171,31 250,46 295,57 104,26 149,30 229,24 86,-6 132,-24 179,-67 46,-43 18,-161 -47,-193 -12,-7 -28,-17 -34,-23 -6,-6 -42,-11 -80,-11 -58,0 -73,4 -103,26 -41,31 -42,37 -9,54 31,17 42,63 21,94 -26,41 -101,40 -132,-2 -8,-9 -14,-37 -14,-62 0,-40 5,-50 38,-81 69,-64 101,-74 236,-73 143,0 191,17 263,91 43,45 45,46 96,40 29,-3 70,-15 93,-27 58,-31 159,-119 142,-124 -7,-3 -46,-7 -86,-11 -94,-8 -216,-33 -220,-46 -2,-5 -9,-9 -16,-9 -23,0 -75,-61 -82,-95 -11,-58 13,-102 71,-133 57,-31 100,-42 167,-42 72,0 86,-8 67,-38 -16,-25 11,-88 41,-97 28,-9 25,-25 -4,-25 -13,0 -29,-7 -36,-15 -7,-8 -26,-15 -42,-15 -16,0 -39,-5 -50,-11 -12,-7 -47,-15 -77,-20 -31,-4 -78,-13 -106,-18 -27,-5 -112,-10 -187,-10 -137,-1 -147,1 -283,46 -84,28 -151,85 -174,149 -11,31 -10,40 8,79 22,47 54,62 106,49 43,-11 85,-60 85,-100 0,-14 -3,-15 -12,-6 -16,16 -90,16 -106,0 -21,-21 -14,-82 11,-106 47,-45 167,-22 195,37 15,30 16,68 2,76 -5,3 -10,15 -10,26 0,24 -71,94 -122,120 -50,26 -141,25 -192,-1 -47,-24 -76,-49 -76,-67 0,-7 -4,-13 -10,-13 -15,0 -12,-93 4,-131 17,-40 57,-87 89,-105 125,-73 268,-108 437,-107 122,0 261,12 275,23 6,5 42,11 80,15 39,4 75,11 80,15 6,4 33,11 60,14 51,7 104,22 140,38 11,5 65,7 120,6 92,-3 98,-4 73,-17 -31,-16 -39,-31 -32,-58 11,-41 79,-63 213,-70 106,-6 106,11 1,41 -85,24 -95,40 -53,77 31,27 151,89 174,89 8,0 23,7 33,15 11,8 26,15 33,15 7,0 32,9 56,19 23,11 59,24 80,31 25,8 37,17 37,30 0,15 -10,20 -47,26 -27,4 -57,13 -68,20 -11,8 -27,14 -36,14 -9,0 -36,11 -60,25 -24,13 -57,31 -74,40 -16,8 -43,24 -60,35 -16,11 -37,23 -45,26 -8,4 -33,21 -55,39 -22,17 -48,34 -57,38 -10,3 -18,11 -18,17 0,5 -5,10 -11,10 -6,0 -28,15 -49,33 -73,64 -164,127 -182,127 -6,0 -19,6 -27,13 -21,18 -119,57 -142,57 -10,0 -20,4 -23,9 -4,5 -24,12 -46,16 -22,4 -40,12 -40,19 0,16 -24,64 -47,93 -28,35 -131,82 -206,95 -66,11 -67,11 -40,24 15,6 53,19 83,28 30,9 64,20 75,25 11,5 47,16 80,26 33,10 74,24 92,31 17,8 38,14 47,14 9,0 25,5 36,10 11,6 28,14 39,19 10,5 35,13 55,16 20,4 39,11 42,16 3,5 15,9 27,9 12,0 35,7 51,15 15,8 37,15 47,15 10,0 20,4 23,9 3,5 23,12 43,16 21,4 43,10 48,14 6,4 37,16 70,26 33,10 67,22 75,26 28,14 122,39 146,39 12,0 26,5 29,10 3,6 17,10 30,10 13,0 26,4 29,9 3,5 32,12 63,16 32,4 63,10 68,15 6,4 32,11 59,15 54,7 96,24 96,37 0,11 -17,10 -24,-1 -3,-4 -28,-11 -56,-14 -28,-4 -66,-11 -83,-16 -18,-5 -68,-17 -112,-26 -44,-9 -96,-21 -115,-26 -19,-6 -57,-14 -85,-19 -52,-9 -177,-40 -236,-58 -19,-6 -63,-18 -99,-27 -36,-8 -87,-22 -115,-30 -90,-25 -199,-57 -240,-70 -22,-7 -67,-20 -100,-30 -33,-9 -80,-23 -105,-31 -25,-8 -51,-14 -58,-14 -7,0 -32,-9 -54,-20 -23,-11 -51,-20 -62,-20 -20,0 -73,-15 -159,-46 -52,-19 -108,-17 -175,5 -113,39 -155,69 -132,96 18,22 64,42 112,50 24,4 48,11 53,15 15,11 157,30 225,30 62,0 72,8 44,31 -52,43 -193,61 -271,35 -26,-9 -56,-16 -68,-16 -12,0 -36,-7 -54,-16 -30,-15 -71,-13 -111,6 -8,4 -33,15 -55,26 -22,10 -71,43 -110,73 -65,50 -68,53 -35,46 69,-15 242,-17 269,-4 41,21 62,41 76,76 17,39 4,96 -28,132 -39,42 -147,120 -178,126 -16,4 -29,11 -29,15 0,11 33,17 190,31 69,6 159,15 200,20 41,5 138,13 215,19 77,6 164,15 194,20 30,6 86,10 124,10 38,0 86,4 106,10 20,5 135,15 256,21 536,28 685,40 642,53 -16,5 -94,4 -180,-3 -84,-6 -240,-12 -347,-12 -108,-1 -227,-6 -265,-10 -39,-5 -194,-13 -345,-19 -151,-6 -318,-15 -370,-19 -52,-5 -129,-12 -170,-15 -41,-4 -111,-11 -155,-16 -44,-5 -131,-14 -194,-19 -63,-6 -130,-16 -149,-22 -27,-9 -40,-8 -65,4 -18,9 -39,18 -47,21 -8,3 -33,17 -55,31 -22,13 -49,29 -60,34 -11,5 -31,21 -44,35 -22,24 -23,28 -10,52 7,15 20,29 29,32 13,5 42,25 87,62 7,6 16,10 20,10 5,0 31,19 57,43 46,40 49,46 49,90 -1,35 -8,57 -27,82 -34,44 -33,53 7,57 108,10 680,-31 857,-63 36,-6 80,-11 98,-11 17,0 35,-4 38,-9 3,-5 19,-9 35,-9 17,0 39,-5 50,-10 10,-6 19,-8 19,-4 0,14 -36,33 -62,34 -15,0 -39,5 -54,10 -15,6 -52,15 -83,20 -31,5 -121,21 -201,35 -345,61 -473,75 -820,84 -268,7 -288,9 -330,30 -116,58 -132,67 -153,89 -22,23 -22,24 -3,38 11,8 32,14 46,14 14,0 30,4 36,10 30,30 706,57 1051,42 299,-14 497,-31 501,-43 5,-12 42,-11 42,1 0,6 -9,10 -19,10 -11,0 -22,4 -25,9 -4,5 -44,12 -91,16 -47,4 -88,11 -91,16 -3,5 -31,9 -62,9 -31,0 -77,5 -101,11 -66,15 -391,32 -676,35 l -250,3 -45,59 c -47,62 -50,66 -101,177 -47,103 -111,197 -160,237 -51,41 -107,70 -113,59 z m 89,-251 c 3,-5 17,-10 30,-10 19,0 30,-13 59,-71 39,-77 63,-112 113,-166 18,-19 31,-38 28,-42 -6,-11 -223,30 -265,50 -8,4 -33,15 -54,25 -51,25 -143,114 -152,148 -7,30 9,56 37,56 10,0 21,5 24,10 3,6 44,10 90,10 46,0 87,-4 90,-10 z m 472,-677 c 37,-21 56,-59 42,-81 -12,-18 -91,-82 -118,-95 -9,-4 -29,-16 -46,-26 -33,-22 -70,-26 -80,-11 -3,6 -13,10 -22,10 -25,0 -101,67 -119,106 -16,34 -16,36 6,59 13,14 39,28 59,31 20,4 43,10 51,15 29,16 196,10 227,-8 z m 375,-612 c 35,-16 82,-47 106,-70 35,-34 42,-47 42,-79 0,-61 -66,-112 -145,-112 -44,0 -153,28 -183,48 -28,18 -162,203 -156,214 3,5 31,8 62,9 31,0 66,4 77,9 45,19 133,11 197,-19 z M 4233,2521 c 23,-16 51,-38 61,-50 11,-11 23,-21 27,-21 10,0 59,-45 59,-54 0,-3 -22,-6 -49,-6 -28,0 -52,-4 -56,-10 -3,-5 -12,-7 -20,-3 -8,3 -15,0 -15,-6 0,-6 -7,-11 -15,-11 -21,0 -88,-35 -104,-54 -18,-22 -133,-22 -151,-1 -7,8 -23,15 -36,15 -25,0 -64,46 -64,77 0,36 105,113 154,113 9,0 24,4 34,9 19,10 88,28 115,30 10,0 37,-12 60,-28 z m 252,-181 c 3,-6 27,-20 53,-31 26,-12 64,-29 85,-39 20,-10 55,-21 77,-25 43,-7 55,-25 16,-25 -13,0 -26,-7 -30,-15 -3,-10 -19,-15 -45,-15 -23,0 -41,-5 -44,-14 -3,-7 -27,-16 -53,-20 -26,-3 -53,-11 -60,-17 -8,-6 -60,-12 -121,-12 -94,-2 -112,1 -135,18 -50,37 -54,58 -22,103 15,21 40,44 54,50 14,6 45,20 70,31 48,21 145,28 155,11 z"
         inkscape:connector-curvature="0"
         style="fill:#f0c674;fill-opacity:1" />
      <path
         id="path5038"
         d="m 1260,5216 c 0,-2 18,-23 39,-46 44,-48 87,-128 97,-178 4,-18 11,-35 15,-38 5,-3 9,-18 9,-34 0,-16 4,-31 9,-34 5,-3 12,-18 15,-33 6,-24 62,-141 101,-212 36,-65 200,-190 221,-168 4,3 -19,29 -49,57 -56,51 -107,128 -141,210 -10,25 -22,54 -27,65 -4,11 -16,45 -25,75 -8,30 -19,64 -23,75 -5,11 -16,47 -27,80 -20,66 -67,143 -92,153 -10,3 -23,12 -30,19 -12,11 -92,19 -92,9 z"
         inkscape:connector-curvature="0"
         style="fill:#f0c674;fill-opacity:1" />
      <path
         id="path5040"
         d="m 11385,5040 c 4,-69 9,-132 12,-140 6,-17 21,-168 29,-300 20,-323 25,-455 34,-769 5,-195 13,-393 19,-440 6,-47 13,-104 15,-126 13,-110 28,-202 36,-220 22,-51 39,-296 22,-318 -4,-7 -14,-32 -21,-57 -20,-69 -72,-170 -94,-182 -76,-40 -188,78 -189,200 -1,44 4,59 29,89 37,46 53,52 53,20 0,-27 28,-57 53,-57 17,0 67,59 67,79 0,16 -22,53 -44,73 -23,22 -59,23 -76,3 -7,-8 -18,-15 -25,-15 -16,0 -68,-76 -88,-130 -22,-60 -23,-224 -2,-278 15,-36 15,-42 -5,-93 -42,-106 -146,-206 -282,-272 -71,-34 -75,-34 -43,0 14,15 25,33 25,40 0,7 4,13 8,13 9,0 80,127 100,180 8,19 16,49 19,65 3,17 10,36 16,44 17,20 13,238 -4,281 -23,55 -61,107 -94,127 -39,24 -102,43 -140,42 -158,-1 -386,-182 -492,-390 -32,-64 -38,-85 -40,-149 l -2,-76 -73,-75 c -41,-42 -86,-101 -101,-132 -16,-32 -33,-57 -38,-57 -5,0 -17,8 -27,18 -10,10 -26,21 -35,25 -9,3 -17,10 -17,14 0,4 -14,8 -30,9 -17,1 -30,-2 -30,-6 0,-5 -12,-12 -27,-18 -16,-5 -52,-31 -82,-58 l -53,-48 5,39 c 6,46 30,143 47,195 6,19 13,44 15,55 2,11 10,40 19,65 8,25 18,64 22,88 4,23 11,45 15,48 5,3 9,18 9,33 0,15 3,31 7,35 5,4 13,29 20,54 6,26 17,65 23,87 7,22 13,49 15,60 1,11 6,29 10,40 19,53 24,73 31,115 3,25 10,50 14,55 4,6 10,24 13,40 16,81 33,151 38,160 6,9 20,70 25,105 1,8 9,35 17,60 8,25 18,65 22,90 4,25 11,50 15,55 5,6 11,36 15,68 4,31 11,57 16,57 5,0 9,9 9,20 0,36 -18,21 -25,-22 -4,-23 -11,-49 -15,-58 -17,-35 -26,-59 -75,-225 -10,-33 -21,-69 -25,-80 -19,-49 -29,-82 -36,-115 -3,-19 -10,-39 -14,-45 -5,-5 -11,-31 -15,-58 -4,-26 -11,-50 -16,-53 -5,-3 -9,-18 -9,-34 0,-16 -4,-31 -9,-34 -5,-4 -12,-25 -16,-49 -3,-23 -10,-51 -15,-62 -17,-38 -40,-116 -40,-135 0,-10 -4,-21 -9,-24 -5,-3 -12,-26 -15,-51 -4,-24 -11,-47 -17,-50 -5,-4 -9,-17 -9,-31 0,-13 -4,-32 -9,-42 -6,-9 -17,-44 -26,-77 -10,-33 -21,-69 -25,-80 -5,-11 -12,-36 -15,-55 -3,-19 -10,-46 -15,-60 -4,-14 -16,-61 -26,-105 -10,-44 -21,-84 -25,-90 -4,-5 -10,-31 -14,-58 -4,-26 -11,-50 -16,-53 -5,-3 -9,-14 -9,-25 0,-10 -4,-27 -9,-37 -5,-9 -17,-39 -26,-67 -22,-64 -66,-155 -85,-176 -8,-9 -32,-19 -52,-23 -21,-4 -38,-10 -38,-14 0,-4 -12,-13 -27,-19 -33,-14 -55,-28 -104,-66 -20,-15 -39,-27 -42,-27 -3,0 -19,-12 -37,-27 -49,-43 -100,-118 -100,-147 0,-25 1,-26 21,-13 11,8 31,34 44,58 31,60 98,99 245,143 120,37 146,34 121,-12 -6,-9 -31,-60 -56,-112 C 9404,1064 9315,943 9200,853 9069,752 9019,728 8928,727 c -76,-1 -126,20 -146,61 -19,42 -14,66 21,100 37,36 84,48 131,34 37,-10 46,-32 14,-32 -26,0 -62,-34 -73,-68 -11,-35 28,-72 75,-72 76,0 153,108 121,169 -23,41 -85,71 -150,71 -81,0 -104,-11 -170,-78 -53,-55 -81,-110 -81,-160 0,-29 26,-74 60,-107 31,-29 33,-30 138,-30 118,0 154,12 277,90 51,33 66,38 129,40 57,1 81,8 121,30 131,73 235,181 295,304 18,36 36,74 41,83 5,10 9,23 9,29 0,6 6,25 14,42 7,18 21,55 31,82 9,28 20,59 25,70 4,11 15,41 25,67 15,43 23,51 78,78 139,68 277,165 331,232 15,18 32,40 39,48 21,25 56,104 50,114 -3,5 -33,-20 -67,-56 -68,-72 -130,-122 -163,-132 -13,-4 -23,-11 -23,-16 0,-9 -61,-33 -67,-26 -2,2 1,16 8,32 6,16 15,38 19,49 5,11 16,47 26,80 9,33 21,64 26,69 4,6 8,17 8,25 0,9 17,49 37,91 36,73 124,180 148,180 6,0 18,-12 26,-26 38,-71 160,-98 230,-51 41,28 58,90 37,134 -18,38 -81,67 -127,58 -20,-3 -56,-7 -81,-8 l -45,-2 -3,39 c -5,64 31,146 98,220 50,54 108,97 205,151 69,39 192,47 248,17 125,-67 161,-237 91,-432 -28,-80 -69,-141 -150,-225 -57,-58 -99,-82 -158,-92 -23,-3 -46,-10 -53,-15 -7,-5 -17,-7 -23,-3 -5,3 -10,2 -10,-2 0,-5 -12,-14 -27,-21 -16,-6 -41,-21 -58,-32 -16,-11 -37,-23 -45,-27 -17,-7 -120,-110 -120,-119 0,-3 -9,-19 -21,-35 -11,-16 -17,-29 -13,-29 5,0 3,-5 -4,-12 -13,-13 -17,-68 -4,-68 15,0 62,56 62,73 0,54 55,100 155,131 33,10 69,22 80,27 11,4 36,11 55,15 32,6 41,10 90,34 11,5 24,10 30,10 6,0 33,11 62,25 28,14 58,25 65,25 15,0 18,-16 4,-24 -5,-3 -12,-30 -16,-61 -3,-30 -11,-57 -16,-60 -5,-4 -9,-14 -9,-24 0,-16 -14,-53 -59,-156 -32,-72 -77,-164 -91,-185 -9,-14 -35,-53 -57,-87 -23,-35 -54,-78 -70,-95 -40,-46 -117,-108 -135,-108 -8,0 -23,-7 -34,-15 -42,-32 -129,-11 -169,41 -36,48 0,137 69,169 56,26 109,33 134,17 35,-23 27,-39 -24,-45 -58,-6 -84,-33 -84,-86 0,-31 5,-43 21,-52 25,-13 82,-4 115,18 35,22 64,91 64,150 0,45 -4,54 -32,78 -29,25 -38,27 -93,22 -77,-6 -154,-55 -206,-132 -37,-54 -49,-96 -49,-178 0,-39 5,-53 31,-79 27,-29 37,-33 99,-36 59,-4 76,0 124,23 151,74 296,263 419,545 8,19 23,60 33,90 10,30 21,60 25,65 4,6 10,31 14,58 4,26 11,50 16,53 5,3 9,18 9,33 0,55 27,97 92,144 88,63 168,154 220,251 16,28 30,56 31,61 2,6 19,-5 37,-22 50,-49 78,-44 144,21 54,54 111,156 123,219 3,18 9,37 13,42 4,6 10,19 12,30 4,16 6,14 12,-10 4,-16 11,-38 17,-47 5,-10 9,-25 9,-34 0,-8 7,-22 15,-30 12,-12 18,-12 35,-2 11,7 20,16 20,21 0,4 11,20 25,35 22,24 37,51 65,117 4,11 15,36 24,57 9,20 16,42 16,50 0,8 3,18 7,22 10,9 33,78 33,99 0,9 5,17 10,17 6,0 10,-18 10,-39 0,-22 5,-43 10,-46 6,-3 10,-33 10,-66 0,-34 4,-59 9,-57 5,2 35,27 67,55 33,29 82,72 110,95 111,94 127,110 170,174 24,36 47,78 50,92 4,15 10,32 14,37 5,6 11,28 15,50 11,68 12,69 46,41 38,-32 40,-32 77,-1 44,37 82,119 82,177 0,48 -14,64 -25,29 -12,-39 -46,-71 -74,-71 -30,0 -48,17 -71,65 -8,17 -17,32 -20,35 -5,5 -21,58 -42,136 -14,53 -3,111 22,119 22,7 67,-14 94,-44 11,-12 23,-21 27,-21 5,0 33,-23 61,-52 64,-62 126,-108 146,-108 18,0 41,29 42,53 0,9 4,25 9,35 5,9 14,53 20,96 6,44 13,81 15,83 2,2 21,-3 41,-12 49,-20 86,-5 115,47 12,21 18,38 14,38 -3,0 -1,7 6,15 9,11 13,57 13,155 0,76 4,137 8,134 5,-3 35,-60 67,-127 54,-110 69,-144 104,-227 6,-14 14,-32 18,-40 4,-9 11,-31 15,-50 4,-19 11,-39 14,-45 24,-33 36,-142 36,-335 0,-195 -7,-255 -35,-310 -4,-9 -11,-31 -15,-50 -7,-31 -40,-99 -70,-142 -6,-10 -35,-42 -63,-73 -51,-55 -69,-105 -38,-105 49,0 150,163 188,305 6,22 15,44 19,50 5,5 9,18 9,30 0,12 4,25 9,31 5,5 14,36 20,69 5,33 16,85 23,115 22,96 13,422 -12,455 -4,6 -11,31 -14,57 -4,26 -11,50 -17,53 -5,4 -9,15 -9,25 0,11 -7,36 -16,57 -9,21 -20,47 -24,58 -24,61 -100,210 -142,278 -26,43 -48,81 -48,84 0,4 -11,20 -24,37 -21,28 -69,112 -100,173 -6,13 -14,23 -17,23 -19,0 -19,-78 1,-125 5,-11 16,-45 26,-75 9,-30 22,-66 28,-79 6,-14 11,-81 11,-160 0,-119 -3,-140 -20,-171 -17,-28 -28,-36 -56,-38 -30,-3 -43,4 -86,42 -28,25 -58,61 -67,80 -21,45 -21,130 1,167 21,35 27,36 41,4 16,-34 39,-41 62,-20 35,32 18,132 -26,149 -20,8 -72,-22 -80,-46 -3,-10 -10,-18 -15,-18 -5,0 -9,-6 -9,-12 0,-7 -7,-26 -16,-43 -12,-22 -16,-57 -17,-130 0,-93 3,-105 33,-167 18,-37 44,-75 57,-83 19,-13 23,-24 23,-63 -1,-123 -54,-131 -183,-25 -146,120 -173,128 -226,67 -31,-35 -51,-38 -51,-7 0,18 -18,78 -30,103 -4,9 -11,39 -15,68 -4,29 -11,54 -16,58 -5,3 -9,20 -9,38 0,18 -3,36 -7,40 -4,3 -8,12 -9,19 -2,7 -7,35 -13,62 -11,54 -33,147 -51,210 -6,22 -16,60 -21,85 -5,25 -14,53 -19,62 -6,10 -10,33 -10,52 0,19 -4,37 -9,41 -5,3 -13,31 -17,63 -3,31 -10,62 -14,67 -4,6 -10,26 -14,45 -23,122 -22,118 -30,88 -5,-16 -5,-36 -1,-45 4,-10 11,-47 16,-83 12,-93 35,-231 54,-330 9,-47 19,-101 21,-120 3,-19 8,-42 11,-50 4,-8 13,-49 20,-90 7,-41 18,-95 23,-120 5,-25 15,-76 23,-115 7,-38 16,-77 19,-85 4,-8 9,-26 11,-40 3,-14 8,-34 11,-45 17,-61 26,-95 36,-135 7,-25 15,-54 20,-65 25,-62 40,-108 40,-125 0,-11 5,-20 10,-20 6,0 10,-7 10,-15 0,-8 10,-36 23,-63 21,-45 21,-49 7,-92 -8,-25 -21,-56 -28,-68 -17,-30 -82,-102 -91,-102 -4,0 -3,33 2,73 10,86 3,191 -18,239 -8,20 -29,48 -47,63 -27,23 -39,26 -76,22 -55,-6 -90,-39 -134,-124 -18,-34 -38,-63 -44,-63 -6,0 -16,36 -22,83 -7,45 -16,105 -22,132 -5,28 -17,93 -26,145 -34,204 -32,189 -79,585 -9,77 -20,172 -26,210 -5,39 -14,111 -19,160 -6,50 -14,108 -18,130 l -9,40 -7,-57 c -5,-32 -5,-75 -1,-95 9,-44 19,-163 34,-388 6,-88 16,-176 21,-196 6,-20 10,-63 10,-95 0,-33 5,-88 11,-124 9,-63 13,-87 43,-315 9,-60 20,-135 25,-165 48,-265 55,-363 29,-451 -26,-91 -80,-206 -112,-241 -25,-27 -42,-9 -57,57 -23,106 -36,161 -42,175 -3,8 -8,35 -11,60 -6,51 -11,86 -25,180 -6,36 -15,119 -21,185 -5,66 -12,136 -16,155 -9,52 -22,221 -39,525 -9,149 -20,308 -25,355 -5,47 -14,153 -19,235 -6,83 -16,169 -21,192 -6,23 -10,63 -10,90 0,66 -27,224 -40,237 -8,8 -9,-24 -5,-114 z m 718,-1661 c 20,-17 37,-38 37,-48 0,-9 5,-22 11,-28 13,-13 7,-139 -9,-197 -6,-22 -18,-43 -26,-48 -8,-5 -21,-14 -28,-21 -39,-39 -120,-107 -127,-107 -4,0 -13,33 -20,73 -6,39 -15,95 -20,122 -4,28 -12,58 -16,68 -4,10 -3,28 3,40 5,12 22,49 37,82 44,100 91,119 158,64 z M 10524,2245 c 39,-36 21,-55 -48,-55 -42,1 -57,6 -86,31 -43,37 -31,49 51,49 46,0 61,-4 83,-25 z m -606,-306 c 49,-17 76,-69 69,-134 -5,-45 -19,-87 -37,-105 -3,-3 -11,-17 -19,-32 -10,-19 -25,-30 -48,-34 -18,-3 -33,-10 -33,-15 0,-4 -21,-11 -47,-14 -27,-3 -59,-12 -73,-19 -14,-7 -40,-16 -57,-19 -27,-5 -33,-3 -33,11 0,10 4,22 9,28 5,5 18,43 30,84 12,41 26,83 32,92 5,10 9,24 9,31 0,19 90,107 125,123 37,16 35,16 73,3 z m -136,-496 c -2,-16 -8,-32 -12,-38 -4,-5 -11,-29 -15,-52 -4,-24 -11,-43 -16,-43 -5,0 -9,-9 -9,-20 0,-18 -11,-46 -49,-130 -50,-110 -159,-232 -244,-274 -49,-24 -107,-35 -107,-20 0,3 14,26 30,51 17,24 30,48 30,53 0,4 4,10 9,12 15,6 85,129 168,298 89,180 93,185 184,189 34,1 36,0 31,-26 z"
         inkscape:connector-curvature="0"
         style="fill:#f0c674;fill-opacity:1" />
      <path
         id="path5042"
         d="m 1080,4957 c 0,-13 8,-32 19,-41 26,-24 119,-56 161,-56 19,0 59,-9 88,-20 51,-20 72,-19 72,0 0,12 -62,51 -120,74 -79,32 -84,34 -134,50 -69,22 -86,21 -86,-7 z"
         inkscape:connector-curvature="0"
         style="fill:#f0c674;fill-opacity:1" />
      <path
         id="path5044"
         d="m 10190,3640 c 0,-5 5,-10 10,-10 6,0 10,5 10,10 0,6 -4,10 -10,10 -5,0 -10,-4 -10,-10 z"
         inkscape:connector-curvature="0"
         style="fill:#f0c674;fill-opacity:1" />
      <path
         id="path5046"
         d="m 2298,3153 c -46,-7 -53,-28 -18,-53 27,-20 39,-21 103,-16 232,19 234,19 204,44 -25,21 -211,37 -289,25 z"
         inkscape:connector-curvature="0"
         style="fill:#f0c674;fill-opacity:1" />
      <path
         id="path5048"
         d="m 8111,2862 c -155,-145 -531,-517 -531,-525 0,-4 -17,-24 -37,-45 -21,-20 -83,-87 -138,-147 -55,-61 -103,-111 -107,-113 -5,-2 -8,-7 -8,-12 0,-4 -43,-52 -95,-106 -52,-54 -95,-101 -95,-104 0,-4 -12,-18 -27,-32 -16,-14 -43,-43 -61,-65 -44,-53 -136,-79 -250,-70 -82,7 -313,56 -348,75 -31,16 -221,42 -279,37 -57,-4 -126,-18 -143,-29 -25,-15 -10,-26 36,-26 26,0 52,-4 58,-9 5,-5 20,-11 34,-13 36,-4 31,-21 -10,-34 -19,-6 -36,-16 -38,-23 -2,-6 -9,-11 -16,-11 -7,0 -30,-16 -52,-35 -25,-22 -49,-35 -67,-35 -15,0 -44,-7 -64,-15 -42,-18 -233,-21 -233,-5 0,31 37,88 94,145 36,36 68,65 71,65 11,0 105,82 105,92 0,17 -45,7 -107,-23 -56,-27 -98,-58 -155,-112 -10,-9 -31,-17 -48,-17 -20,0 -30,-5 -30,-15 0,-10 -10,-15 -31,-15 -18,0 -37,-7 -43,-15 -14,-19 -159,-31 -198,-16 -24,9 -28,16 -28,47 0,41 41,123 82,166 42,43 97,68 150,68 27,0 48,-3 48,-6 0,-3 -10,-14 -22,-24 -22,-18 -22,-19 -6,-54 22,-45 53,-54 98,-29 62,35 60,121 -3,151 -15,7 -27,17 -27,23 0,11 -143,12 -156,0 -5,-5 -26,-14 -46,-21 -21,-6 -38,-16 -38,-21 0,-5 -7,-9 -16,-9 -17,0 -115,-72 -153,-113 -13,-14 -31,-49 -40,-78 -19,-58 -11,-103 25,-140 23,-22 111,-47 151,-43 84,10 169,26 177,35 6,5 17,9 25,9 10,0 1,-14 -22,-38 -57,-58 -46,-92 31,-92 30,0 42,-4 40,-12 -3,-7 -13,-15 -22,-16 -16,-4 -26,-11 -77,-57 -9,-8 -20,-15 -26,-15 -6,0 -16,-7 -23,-15 -7,-8 -20,-15 -30,-15 -10,0 -20,-7 -24,-15 -3,-8 -11,-15 -18,-15 -7,0 -40,-13 -73,-29 -33,-16 -87,-39 -120,-51 -33,-12 -77,-29 -98,-38 -28,-11 -73,-16 -165,-16 -120,-1 -129,1 -167,25 -61,40 -77,64 -83,117 -6,64 23,101 87,109 57,8 101,-15 130,-68 19,-34 20,-40 7,-45 -9,-3 -23,1 -31,10 -22,21 -75,20 -102,-3 -25,-21 -32,-78 -11,-99 7,-7 42,-12 86,-12 71,0 75,1 108,34 57,57 43,136 -35,203 -14,12 -33,22 -41,23 -8,0 -27,7 -42,14 -31,16 -62,15 -95,-2 -12,-7 -32,-12 -45,-12 -13,0 -42,-17 -65,-38 -112,-100 -61,-259 98,-304 91,-25 355,-8 436,28 17,8 36,14 42,14 6,0 25,8 43,18 18,10 62,34 98,53 36,19 107,62 158,97 51,34 95,62 98,62 3,0 10,4 17,10 60,49 81,60 137,73 66,16 170,28 170,20 0,-3 -9,-16 -20,-30 -27,-35 -25,-65 7,-97 36,-37 56,-40 213,-33 l 138,5 6,-26 c 11,-55 17,-57 133,-56 81,0 115,5 138,17 17,9 40,17 52,17 12,0 25,5 28,10 3,6 13,10 21,10 13,0 12,-5 -5,-28 -11,-16 -22,-39 -26,-53 -5,-20 -1,-26 25,-38 17,-7 47,-11 68,-8 62,9 130,26 154,38 90,47 88,39 -13,-61 -50,-50 -95,-90 -100,-90 -5,0 -9,-7 -9,-15 0,-8 -7,-15 -15,-15 -7,0 -18,-6 -22,-13 -10,-15 -152,-134 -180,-150 -11,-7 -47,-30 -80,-53 -32,-22 -65,-43 -73,-47 -8,-4 -35,-19 -60,-33 -92,-52 -155,-67 -256,-61 -68,4 -96,2 -103,-7 -39,-47 141,-51 254,-5 11,4 36,11 55,15 19,3 41,10 50,14 8,4 35,16 60,25 78,31 152,68 234,118 104,63 127,82 260,209 l 112,108 100,0 c 54,-1 119,-6 144,-11 107,-25 274,-43 390,-43 126,1 292,18 320,33 9,5 36,12 60,16 25,4 50,10 55,14 6,4 42,20 80,36 81,33 187,95 193,113 5,16 -34,15 -66,-2 -66,-34 -217,-86 -250,-86 -10,0 -23,-5 -29,-11 -11,-11 -133,-23 -133,-13 0,3 35,40 78,82 96,94 126,134 142,189 16,52 2,91 -43,129 -27,23 -38,26 -82,21 -45,-5 -181,-66 -195,-88 -3,-4 -18,-11 -33,-14 -15,-4 -27,-11 -27,-16 0,-18 -16,-8 -33,21 -10,16 -15,30 -11,30 3,0 1,7 -6,15 -7,8 -21,15 -31,15 -10,0 -22,6 -26,14 -12,21 -115,26 -110,5 1,-6 -11,-12 -28,-13 -16,-1 -41,-6 -54,-10 -23,-8 -23,-7 7,36 16,24 45,62 64,84 18,22 42,53 53,69 11,15 27,35 35,44 8,9 39,46 69,81 56,67 409,419 595,594 58,55 104,101 101,104 -4,4 -81,-51 -100,-73 -5,-6 -20,-17 -31,-25 -32,-22 -186,-155 -334,-289 -139,-126 -325,-314 -408,-416 -19,-22 -65,-72 -103,-112 -38,-39 -69,-74 -69,-77 0,-3 -17,-23 -37,-44 -58,-60 -158,-173 -161,-183 -2,-5 -10,-9 -18,-9 -8,0 -17,-7 -20,-15 -4,-8 -17,-15 -29,-15 -13,0 -30,-6 -38,-14 -7,-8 -34,-20 -58,-27 -24,-7 -47,-17 -50,-22 -4,-5 -16,-6 -28,-2 -29,9 -21,36 28,93 20,24 52,63 71,86 19,24 92,110 162,192 70,82 169,198 220,258 51,59 114,132 141,161 26,28 47,55 47,60 0,4 8,15 18,24 10,9 51,54 92,101 40,47 77,87 82,88 4,2 8,9 8,15 0,6 30,43 68,82 110,119 237,257 273,300 19,21 80,86 137,144 93,96 107,112 100,111 -2,-1 -54,-49 -117,-108 z M 6320,1630 c 30,-6 64,-15 75,-20 11,-5 31,-10 44,-12 28,-3 42,-28 16,-28 -10,0 -34,-13 -54,-29 -20,-15 -45,-31 -56,-35 -11,-4 -40,-31 -64,-61 -24,-30 -48,-52 -53,-49 -4,3 -8,1 -8,-4 0,-12 -122,-24 -164,-16 -49,9 -62,43 -38,97 18,39 78,102 131,137 13,8 30,21 39,28 17,13 36,12 132,-8 z m 570,-44 c 0,-5 -170,-176 -191,-191 -22,-17 -104,-55 -119,-55 -7,0 -18,-7 -24,-16 -14,-19 -160,-22 -182,-3 -17,14 -18,62 -3,92 16,30 111,127 125,127 6,0 17,7 24,15 10,12 42,15 164,16 83,0 160,4 171,9 23,10 35,12 35,6 z m 993,-128 c 33,-39 34,-59 5,-102 -28,-40 -85,-106 -93,-106 -3,0 -28,-16 -55,-35 -57,-40 -63,-41 -115,-19 -22,9 -66,15 -106,15 -66,0 -90,11 -51,23 24,8 106,93 129,135 26,47 78,87 143,111 69,25 107,19 143,-22 z m -440,21 c 67,-35 76,-91 22,-145 -19,-19 -35,-37 -35,-40 0,-4 -27,-30 -68,-64 -11,-10 -332,-13 -332,-3 0,1 8,11 18,21 167,177 220,222 261,222 11,0 23,5 26,10 8,14 81,13 108,-1 z"
         inkscape:connector-curvature="0"
         style="fill:#f0c674;fill-opacity:1" />
      <path
         id="path5050"
         d="m 12187,2743 c -13,-12 -7,-90 10,-142 10,-33 29,-63 51,-82 31,-27 36,-29 55,-16 13,8 23,27 25,45 3,26 -3,35 -36,57 -40,26 -52,43 -73,108 -13,37 -20,43 -32,30 z"
         inkscape:connector-curvature="0"
         style="fill:#f0c674;fill-opacity:1" />
      <path
         id="path5052"
         d="m 2742,2667 c -43,-13 -41,-47 3,-59 35,-10 172,0 181,13 3,5 32,9 65,9 60,0 74,11 47,38 -15,15 -248,15 -296,-1 z"
         inkscape:connector-curvature="0"
         style="fill:#f0c674;fill-opacity:1" />
      <path
         id="path5054"
         d="m 12123,2604 c -3,-9 -1,-44 5,-79 7,-34 12,-98 12,-142 0,-68 3,-83 21,-99 20,-18 21,-18 35,1 27,37 17,126 -26,230 -5,11 -11,37 -15,57 -7,42 -22,58 -32,32 z"
         inkscape:connector-curvature="0"
         style="fill:#f0c674;fill-opacity:1" />
      <path
         id="path5056"
         d="m 12040,2586 c -7,-9 -9,-23 -5,-33 15,-37 5,-132 -17,-160 -5,-6 -8,-29 -6,-50 3,-33 6,-38 27,-38 16,0 30,10 42,30 42,72 5,305 -41,251 z"
         inkscape:connector-curvature="0"
         style="fill:#f0c674;fill-opacity:1" />
      <path
         id="path5058"
         d="m 5118,2583 c -20,-2 -42,-11 -48,-19 -7,-8 -18,-14 -25,-14 -24,0 -103,-86 -107,-116 -9,-75 28,-136 103,-169 35,-16 44,-17 80,-5 53,18 84,42 103,82 15,30 15,33 -10,65 -20,26 -30,32 -47,27 -61,-18 -85,-57 -52,-84 24,-20 18,-30 -20,-30 -28,0 -39,6 -60,37 -17,26 -25,51 -25,80 0,36 5,46 33,67 87,67 259,-1 321,-126 19,-37 21,-120 4,-151 -23,-40 -51,-67 -70,-67 -10,0 -21,-7 -24,-15 -4,-8 -13,-15 -22,-15 -8,0 -23,-7 -32,-15 -9,-8 -51,-24 -94,-35 -70,-18 -109,-21 -288,-20 -40,0 -50,-13 -20,-26 19,-9 23,-9 107,-23 98,-16 115,-22 132,-48 17,-26 17,-28 -32,-112 -15,-26 -81,-91 -93,-91 -4,0 -19,-11 -33,-24 -23,-21 -124,-77 -189,-105 -51,-21 -181,-61 -201,-61 -11,0 -30,-5 -41,-11 -12,-6 -55,-16 -96,-21 -41,-5 -83,-13 -93,-19 -11,-5 -102,-10 -204,-10 -102,0 -185,-3 -185,-8 0,-4 11,-13 25,-19 31,-14 255,-16 299,-3 17,6 76,14 131,20 55,5 120,14 145,20 25,5 70,15 100,21 30,6 64,14 75,19 11,5 45,16 75,26 176,55 351,170 406,267 51,90 55,123 20,161 -24,26 -24,27 -6,37 10,5 26,10 34,10 15,0 44,12 131,52 118,55 177,126 178,217 0,49 -5,65 -35,113 -72,112 -193,161 -350,141 z"
         inkscape:connector-curvature="0"
         style="fill:#f0c674;fill-opacity:1" />
      <path
         id="path5060"
         d="m 11552,2208 c -17,-17 -15,-105 5,-158 31,-85 76,-113 107,-65 24,36 20,47 -29,97 -27,28 -45,55 -45,69 0,32 -11,69 -19,69 -4,0 -12,-5 -19,-12 z"
         inkscape:connector-curvature="0"
         style="fill:#f0c674;fill-opacity:1" />
      <path
         id="path5062"
         d="m 11394,2078 c -5,-7 -9,-38 -11,-68 -1,-36 -11,-72 -27,-105 -14,-27 -26,-62 -26,-77 0,-24 4,-28 29,-28 23,0 34,8 51,35 18,30 22,50 22,131 0,72 -4,100 -15,111 -12,12 -16,13 -23,1 z"
         inkscape:connector-curvature="0"
         style="fill:#f0c674;fill-opacity:1" />
      <path
         id="path5064"
         d="m 11475,2078 c -10,-35 -13,-282 -3,-304 14,-29 20,-30 44,-3 15,16 18,35 17,93 0,40 -6,82 -12,93 -6,11 -11,46 -12,77 -2,40 -6,56 -16,56 -7,0 -15,-6 -18,-12 z"
         inkscape:connector-curvature="0"
         style="fill:#f0c674;fill-opacity:1" />
      <path
         id="path5066"
         d="m 9295,1824 c -32,-34 -32,-67 0,-92 26,-20 34,-21 70,-9 30,10 51,63 34,85 -38,50 -69,54 -104,16 z"
         inkscape:connector-curvature="0"
         style="fill:#f0c674;fill-opacity:1" />
      <path
         id="path5068"
         d="m 7355,901 c -10,-33 -58,-78 -113,-108 -30,-15 -58,-36 -63,-45 -12,-23 9,-58 35,-58 60,0 170,120 178,195 4,35 -26,49 -37,16 z"
         inkscape:connector-curvature="0"
         style="fill:#f0c674;fill-opacity:1" />
      <path
         id="path5070"
         d="m 7543,892 c -39,-52 -63,-115 -63,-163 0,-73 38,-87 86,-31 20,22 21,28 9,56 -15,36 -10,77 17,124 23,41 23,42 -5,42 -14,0 -32,-11 -44,-28 z"
         inkscape:connector-curvature="0"
         style="fill:#f0c674;fill-opacity:1" />
      <path
         id="path5072"
         d="m 7433,863 c -7,-2 -13,-10 -13,-17 0,-7 -9,-21 -20,-31 -11,-10 -18,-21 -15,-24 2,-4 -19,-31 -47,-61 -55,-59 -92,-116 -83,-131 11,-17 60,-9 82,15 20,21 83,135 83,151 0,3 11,23 25,45 35,55 31,71 -12,53 z"
         inkscape:connector-curvature="0"
         style="fill:#f0c674;fill-opacity:1" />
    </g>
  </g>
</svg>
